<svg width="120" height="120" viewBox="0 0 120 120" fill="none" xmlns="http://www.w3.org/2000/svg">
<path d="M110.089 21.7074L76.4607 28.5905C74.0571 29.088 71.8535 30.2827 70.1251 32.0255C67.8836 34.1315 66.568 37.0399 66.4664 40.1139C66.3649 43.1879 67.4856 46.1768 69.5832 48.4261L72.9582 51.8011L77.7713 46.988C78.7479 45.9907 79.9126 45.197 81.1979 44.6527C82.4832 44.1085 83.8637 43.8245 85.2595 43.8172C86.6553 43.8099 88.0387 44.0794 89.3297 44.6102C90.6206 45.1409 91.7935 45.9224 92.7805 46.9094C93.7675 47.8964 94.549 49.0693 95.0798 50.3603C95.6106 51.6512 95.8801 53.0346 95.8728 54.4304C95.8655 55.8262 95.5815 57.2067 95.0372 58.4921C94.4929 59.7774 93.6992 60.942 92.7019 61.9186L87.8869 66.7318L91.2619 70.1068C92.2756 71.111 93.4782 71.9044 94.8003 72.4412C96.1223 72.978 97.5376 73.2475 98.9644 73.2343C102.235 73.2094 105.361 71.8885 107.659 69.5611C109.4 67.8326 110.595 65.6299 111.094 63.2274L117.977 29.6011C118.223 28.5145 118.19 27.3832 117.881 26.3128C117.572 25.2424 116.997 24.2677 116.209 23.4796C115.421 22.6915 114.447 22.1157 113.377 21.8058C112.307 21.4959 111.176 21.462 110.089 21.7074Z" fill="white" fill-opacity="0.3"/>
<path d="M90.0479 49.6332C88.7707 48.3579 87.0396 47.6416 85.2348 47.6416C83.4299 47.6416 81.6988 48.3579 80.4216 49.6332L43.4204 86.6363L47.6654 87.2419C48.8672 87.419 49.9802 87.978 50.8398 88.8363C51.6995 89.6946 52.2602 90.8066 52.4392 92.0082L53.0467 96.2625L90.0479 59.2594C91.3223 57.9817 92.0379 56.2508 92.0379 54.4463C92.0379 52.6417 91.3223 50.9108 90.0479 49.6332Z" fill="white" fill-opacity="0.3"/>
<path d="M48.7282 92.5457C48.6709 92.1438 48.4848 91.7713 48.1977 91.4843C47.9107 91.1972 47.5382 91.0111 47.1363 90.9538L37.3694 89.5607C36.3237 89.4144 35.2582 89.5119 34.2564 89.8456C33.2546 90.1793 32.3435 90.7402 31.5944 91.4844L26.3613 96.7157C25.0864 97.9934 24.3704 99.7247 24.3704 101.53C24.3704 103.335 25.0864 105.066 26.3613 106.344L33.3363 113.319C34.614 114.594 36.3454 115.31 38.1504 115.31C39.9554 115.31 41.6867 114.594 42.9644 113.319L48.1976 108.088C48.9419 107.339 49.5029 106.427 49.8366 105.426C50.1703 104.424 50.2678 103.358 50.1213 102.313L48.7282 92.5457ZM37.4988 105.935C36.7571 105.935 36.0321 105.715 35.4154 105.303C34.7987 104.891 34.3181 104.305 34.0343 103.62C33.7504 102.935 33.6762 102.181 33.8209 101.453C33.9656 100.726 34.3227 100.058 34.8472 99.5334C35.3716 99.009 36.0398 98.6518 36.7672 98.5071C37.4946 98.3624 38.2486 98.4367 38.9339 98.7205C39.6191 99.0043 40.2048 99.485 40.6168 100.102C41.0289 100.718 41.2488 101.443 41.2488 102.185C41.2488 103.18 40.8537 104.133 40.1505 104.837C39.4472 105.54 38.4934 105.935 37.4988 105.935Z" fill="white" fill-opacity="0.3"/>
<path d="M22.5 30.9696V38.4377C22.5 42.416 24.0804 46.2313 26.8934 49.0443C29.7064 51.8574 33.5218 53.4377 37.5 53.4377C41.4782 53.4377 45.2936 51.8574 48.1066 49.0443C50.9196 46.2313 52.5 42.416 52.5 38.4377V30.9696C58.02 29.4152 61.875 26.8877 61.875 23.4377C61.875 20.4021 58.9594 17.9196 53.49 16.2096C52.3707 12.8542 50.2242 9.93598 47.3544 7.8681C44.4847 5.80022 41.0372 4.6875 37.5 4.6875C33.9628 4.6875 30.5153 5.80022 27.6456 7.8681C24.7758 9.93598 22.6293 12.8542 21.51 16.2096C16.0406 17.9196 13.125 20.4021 13.125 23.4377C13.125 26.8877 16.98 29.4152 22.5 30.9696ZM48.75 38.4377C48.75 41.4214 47.5647 44.2829 45.455 46.3927C43.3452 48.5025 40.4837 49.6877 37.5 49.6877C34.5163 49.6877 31.6548 48.5025 29.545 46.3927C27.4353 44.2829 26.25 41.4214 26.25 38.4377V31.8321C29.9629 32.4966 33.7281 32.8248 37.5 32.8127C41.2719 32.8248 45.0371 32.4966 48.75 31.8321V38.4377ZM37.5 8.43773C40.6552 8.44166 43.7037 9.58028 46.0889 11.6457C48.4741 13.7111 50.0369 16.5655 50.4919 19.6877H24.5081C24.9631 16.5655 26.5259 13.7111 28.9111 11.6457C31.2963 9.58028 34.3448 8.44166 37.5 8.43773ZM20.6794 20.4771C20.6569 20.8371 20.625 21.1952 20.625 21.5627C20.625 22.06 20.8225 22.5369 21.1742 22.8886C21.5258 23.2402 22.0027 23.4377 22.5 23.4377H52.5C52.9973 23.4377 53.4742 23.2402 53.8258 22.8886C54.1775 22.5369 54.375 22.06 54.375 21.5627C54.375 21.1877 54.3431 20.8371 54.3206 20.4771C57.0488 21.6096 58.125 22.7927 58.125 23.4377C58.125 25.3484 50.8444 29.0627 37.5 29.0627C24.1556 29.0627 16.875 25.3484 16.875 23.4377C16.875 22.7927 17.9513 21.6096 20.6794 20.4771Z" fill="white"/>
<path d="M56.25 57.1875H18.75C14.276 57.1925 9.98666 58.972 6.82305 62.1356C3.65945 65.2992 1.87996 69.5885 1.875 74.0625V92.8125C1.875 94.3043 2.46763 95.7351 3.52252 96.79C4.57742 97.8449 6.00816 98.4375 7.5 98.4375H67.5C68.9918 98.4375 70.4226 97.8449 71.4775 96.79C72.5324 95.7351 73.125 94.3043 73.125 92.8125V74.0625C73.12 69.5885 71.3405 65.2992 68.1769 62.1356C65.0133 58.972 60.724 57.1925 56.25 57.1875ZM20.625 60.9375H24.375V70.3125C24.375 71.8043 24.9676 73.2351 26.0225 74.29C27.0774 75.3449 28.5082 75.9375 30 75.9375H45C46.4918 75.9375 47.9226 75.3449 48.9775 74.29C50.0324 73.2351 50.625 71.8043 50.625 70.3125V60.9375H54.375V94.6875H20.625V60.9375ZM28.125 60.9375H46.875V70.3125C46.875 70.8098 46.6775 71.2867 46.3258 71.6383C45.9742 71.99 45.4973 72.1875 45 72.1875H30C29.5027 72.1875 29.0258 71.99 28.6742 71.6383C28.3225 71.2867 28.125 70.8098 28.125 70.3125V60.9375ZM5.625 92.8125V74.0625C5.63103 70.9097 6.7708 67.8642 8.8362 65.4821C10.9016 63.1 13.7549 61.5402 16.875 61.0875V94.6875H7.5C7.00272 94.6875 6.52581 94.49 6.17417 94.1383C5.82254 93.7867 5.625 93.3098 5.625 92.8125ZM69.375 92.8125C69.375 93.3098 69.1775 93.7867 68.8258 94.1383C68.4742 94.49 67.9973 94.6875 67.5 94.6875H58.125V61.0875C61.2451 61.5402 64.0984 63.1 66.1638 65.4821C68.2292 67.8642 69.369 70.9097 69.375 74.0625V92.8125Z" fill="white"/>
<path d="M46.875 83.4375H28.125C27.6277 83.4375 27.1508 83.635 26.7992 83.9867C26.4475 84.3383 26.25 84.8152 26.25 85.3125C26.25 85.8098 26.4475 86.2867 26.7992 86.6383C27.1508 86.99 27.6277 87.1875 28.125 87.1875H46.875C47.3723 87.1875 47.8492 86.99 48.2008 86.6383C48.5525 86.2867 48.75 85.8098 48.75 85.3125C48.75 84.8152 48.5525 84.3383 48.2008 83.9867C47.8492 83.635 47.3723 83.4375 46.875 83.4375Z" fill="white"/>
</svg>
