<svg width="120" height="120" viewBox="0 0 120 120" fill="none" xmlns="http://www.w3.org/2000/svg">
<path d="M105.643 24.375C104.003 24.3709 102.379 24.692 100.864 25.3195C99.3494 25.9471 97.9739 26.8688 96.8175 28.0313L93.75 31.0969L111.401 48.75L114.469 45.6825C116.214 43.9369 117.403 41.7129 117.884 39.2918C118.366 36.8706 118.119 34.3611 117.174 32.0804C116.229 29.7997 114.63 27.8504 112.577 26.4789C110.525 25.1073 108.112 24.3752 105.643 24.375Z" fill="white" fill-opacity="0.3"/>
<path d="M40.1393 104.995L101.228 43.9063L108.727 51.4054L47.6384 112.494L40.1393 104.995Z" fill="white" fill-opacity="0.3"/>
<path d="M29.9914 94.8438L91.0802 33.7549L98.5793 41.254L37.4905 102.343L29.9914 94.8438Z" fill="white" fill-opacity="0.3"/>
<path d="M24.4118 115.875C24.3497 116.179 24.3639 116.493 24.4531 116.79C24.5424 117.087 24.7038 117.357 24.923 117.577C25.1422 117.796 25.4124 117.957 25.7093 118.046C26.0062 118.136 26.3206 118.15 26.6243 118.088L44.39 114.535L27.9725 98.1152L24.4118 115.875Z" fill="white" fill-opacity="0.3"/>
<path d="M90 13.125H16.875V3.75C16.875 3.25272 16.6775 2.77581 16.3258 2.42417C15.9742 2.07254 15.4973 1.875 15 1.875C11.5203 1.87897 8.18416 3.26305 5.72361 5.72361C3.26305 8.18416 1.87897 11.5203 1.875 15V82.5338V82.9087C2.06883 86.3708 3.59027 89.6248 6.12268 91.9934C8.65508 94.362 12.0034 95.6628 15.4706 95.625H90C91.4918 95.625 92.9226 95.0324 93.9775 93.9775C95.0324 92.9226 95.625 91.4918 95.625 90V18.75C95.625 17.2582 95.0324 15.8274 93.9775 14.7725C92.9226 13.7176 91.4918 13.125 90 13.125ZM5.625 15C5.62738 12.8395 6.37469 10.746 7.74093 9.07231C9.10716 7.39867 11.0087 6.24736 13.125 5.8125V69.5062C10.2724 69.9091 7.63432 71.2479 5.625 73.3125V15ZM52.5 91.875H41.25V75C41.2537 71.8465 42.3926 68.7998 44.4585 66.4172C46.5243 64.0347 49.3789 62.4755 52.5 62.025V91.875ZM67.5 91.875H56.25V62.025C59.3711 62.4755 62.2257 64.0347 64.2915 66.4172C66.3574 68.7998 67.4963 71.8465 67.5 75V91.875ZM78.75 91.875H71.25V75C71.25 70.5245 69.4721 66.2323 66.3074 63.0676C63.1427 59.9029 58.8505 58.125 54.375 58.125C49.8995 58.125 45.6073 59.9029 42.4426 63.0676C39.2779 66.2323 37.5 70.5245 37.5 75V91.875H30V52.5H78.75V91.875ZM27.4594 48.75L54.375 24.9994L81.2906 48.75H27.4594ZM91.875 90C91.875 90.4973 91.6775 90.9742 91.3258 91.3258C90.9742 91.6775 90.4973 91.875 90 91.875H82.5V52.5H86.25C86.6309 52.5002 87.0029 52.3844 87.3164 52.1679C87.6299 51.9515 87.87 51.6447 88.0048 51.2884C88.1396 50.9321 88.1626 50.5432 88.0709 50.1735C87.9791 49.8037 87.777 49.4707 87.4912 49.2188L55.6163 21.0938C55.2736 20.7911 54.8322 20.6241 54.375 20.6241C53.9178 20.6241 53.4764 20.7911 53.1337 21.0938L21.2588 49.2188C20.973 49.4707 20.7709 49.8037 20.6791 50.1735C20.5874 50.5432 20.6104 50.9321 20.7452 51.2884C20.88 51.6447 21.1201 51.9515 21.4336 52.1679C21.7471 52.3844 22.1191 52.5002 22.5 52.5H26.25V91.875H15.4706C12.976 91.9181 10.5608 90.998 8.72709 89.3061C6.89341 87.6142 5.78237 85.2806 5.625 82.7906C5.58606 81.5352 5.79978 80.2848 6.25345 79.1136C6.70713 77.9425 7.39151 76.8744 8.26597 75.9728C9.14043 75.0713 10.1871 74.3546 11.3439 73.8654C12.5007 73.3762 13.744 73.1244 15 73.125C15.4973 73.125 15.9742 72.9275 16.3258 72.5758C16.6775 72.2242 16.875 71.7473 16.875 71.25V16.875H90C90.4973 16.875 90.9742 17.0725 91.3258 17.4242C91.6775 17.7758 91.875 18.2527 91.875 18.75V90Z" fill="white"/>
</svg>
