<svg width="6" height="29" viewBox="0 0 6 29" fill="none" xmlns="http://www.w3.org/2000/svg">
<path d="M1.48555 17.0432L1.51431 17.5127H1.98462H4.04615H4.51646L4.54522 17.0432L5.12983 7.50034L5.13077 7.48506V7.46976V1V0.5H4.63077H1.4H0.9V1V7.46976V7.48506L0.900936 7.50034L1.48555 17.0432ZM1.22233 27.73C1.70421 28.2366 2.30598 28.5 3 28.5C3.70707 28.5 4.31449 28.2416 4.78229 27.7251C5.26024 27.2203 5.5 26.6014 5.5 25.8973C5.5 25.1933 5.26024 24.5744 4.78229 24.0695C4.31449 23.5531 3.70707 23.2947 3 23.2947C2.30598 23.2947 1.70421 23.5581 1.22233 24.0647C0.741306 24.5704 0.5 25.191 0.5 25.8973C0.5 26.6037 0.741307 27.2243 1.22233 27.73Z" fill="white" stroke="white"/>
</svg>
