<svg width="120" height="120" viewBox="0 0 120 120" fill="none" xmlns="http://www.w3.org/2000/svg">
<path d="M73.1242 28.125C61.1936 28.1384 49.7554 32.8838 41.3192 41.32C32.883 49.7562 28.1376 61.1944 28.1242 73.125C28.1076 79.6854 29.5398 86.1684 32.3186 92.1112L24.4736 115.657C24.3798 115.939 24.3542 116.239 24.3989 116.532C24.4436 116.826 24.5572 117.104 24.7306 117.345C24.9039 117.586 25.132 117.782 25.396 117.918C25.66 118.054 25.9524 118.124 26.2492 118.125H73.1242C85.0589 118.125 96.5049 113.384 104.944 104.945C113.383 96.5057 118.124 85.0597 118.124 73.125C118.124 61.1903 113.383 49.7443 104.944 41.3052C96.5049 32.8661 85.0589 28.125 73.1242 28.125ZM89.9992 91.875H56.2492C55.7519 91.875 55.275 91.6775 54.9234 91.3258C54.5717 90.9742 54.3742 90.4973 54.3742 90C54.3742 89.5027 54.5717 89.0258 54.9234 88.6742C55.275 88.3225 55.7519 88.125 56.2492 88.125H89.9992C90.4965 88.125 90.9734 88.3225 91.325 88.6742C91.6767 89.0258 91.8742 89.5027 91.8742 90C91.8742 90.4973 91.6767 90.9742 91.325 91.3258C90.9734 91.6775 90.4965 91.875 89.9992 91.875ZM89.9992 75H56.2492C55.7519 75 55.275 74.8025 54.9234 74.4508C54.5717 74.0992 54.3742 73.6223 54.3742 73.125C54.3742 72.6277 54.5717 72.1508 54.9234 71.7992C55.275 71.4475 55.7519 71.25 56.2492 71.25H89.9992C90.4965 71.25 90.9734 71.4475 91.325 71.7992C91.6767 72.1508 91.8742 72.6277 91.8742 73.125C91.8742 73.6223 91.6767 74.0992 91.325 74.4508C90.9734 74.8025 90.4965 75 89.9992 75ZM89.9992 58.125H56.2492C55.7519 58.125 55.275 57.9275 54.9234 57.5758C54.5717 57.2242 54.3742 56.7473 54.3742 56.25C54.3742 55.7527 54.5717 55.2758 54.9234 54.9242C55.275 54.5725 55.7519 54.375 56.2492 54.375H89.9992C90.4965 54.375 90.9734 54.5725 91.325 54.9242C91.6767 55.2758 91.8742 55.7527 91.8742 56.25C91.8742 56.7473 91.6767 57.2242 91.325 57.5758C90.9734 57.9275 90.4965 58.125 89.9992 58.125Z" fill="white" fill-opacity="0.3"/>
<path d="M35.5781 58.125C34.23 58.125 31.2056 61.875 24.375 61.875C17.3831 61.875 14.7113 58.125 13.1719 58.125C10.1768 58.1285 7.30544 59.3198 5.18761 61.4376C3.06979 63.5554 1.87847 66.4268 1.875 69.4219V90C1.875 91.4918 2.46763 92.9226 3.52252 93.9775C4.57742 95.0324 6.00816 95.625 7.5 95.625H41.25C42.7418 95.625 44.1726 95.0324 45.2275 93.9775C46.2824 92.9226 46.875 91.4918 46.875 90V69.4219C46.8715 66.4268 45.6802 63.5554 43.5624 61.4376C41.4446 59.3198 38.5732 58.1285 35.5781 58.125ZM43.125 90C43.125 90.4973 42.9275 90.9742 42.5758 91.3258C42.2242 91.6775 41.7473 91.875 41.25 91.875H7.5C7.00272 91.875 6.52581 91.6775 6.17417 91.3258C5.82254 90.9742 5.625 90.4973 5.625 90V69.4219C5.62731 67.5207 6.34622 65.6902 7.63832 64.2956C8.93043 62.901 10.7008 62.0447 12.5962 61.8975C16.045 64.3233 20.1586 65.6252 24.375 65.6252C28.5914 65.6252 32.705 64.3233 36.1537 61.8975C38.0492 62.0447 39.8196 62.901 41.1117 64.2956C42.4038 65.6902 43.1227 67.5207 43.125 69.4219V90Z" fill="white"/>
<path d="M24.375 58.125C26.9709 58.125 29.5085 57.3552 31.6669 55.9131C33.8253 54.4709 35.5075 52.421 36.5009 50.0227C37.4943 47.6244 37.7542 44.9854 37.2478 42.4394C36.7414 39.8934 35.4913 37.5548 33.6558 35.7192C31.8202 33.8837 29.4816 32.6336 26.9356 32.1272C24.3896 31.6208 21.7506 31.8807 19.3523 32.8741C16.954 33.8675 14.9042 35.5498 13.462 37.7081C12.0198 39.8665 11.25 42.4041 11.25 45C11.2545 48.4796 12.6387 51.8154 15.0992 54.2759C17.5596 56.7363 20.8954 58.1205 24.375 58.125ZM24.375 35.625C26.2292 35.625 28.0418 36.1748 29.5835 37.205C31.1252 38.2351 32.3268 39.6993 33.0364 41.4124C33.7459 43.1254 33.9316 45.0104 33.5699 46.829C33.2081 48.6476 32.3152 50.318 31.0041 51.6291C29.693 52.9403 28.0225 53.8331 26.204 54.1949C24.3854 54.5566 22.5004 54.371 20.7873 53.6614C19.0743 52.9518 17.6101 51.7502 16.58 50.2085C15.5498 48.6668 15 46.8542 15 45C15.003 42.5145 15.9917 40.1317 17.7492 38.3742C19.5067 36.6167 21.8895 35.628 24.375 35.625Z" fill="white"/>
<path d="M84.3281 58.125C82.98 58.125 79.9556 61.875 73.125 61.875C66.1331 61.875 63.4613 58.125 61.9219 58.125C58.9268 58.1285 56.0554 59.3198 53.9376 61.4376C51.8198 63.5554 50.6285 66.4268 50.625 69.4219V90C50.625 91.4918 51.2176 92.9226 52.2725 93.9775C53.3274 95.0324 54.7582 95.625 56.25 95.625H90C91.4918 95.625 92.9226 95.0324 93.9775 93.9775C95.0324 92.9226 95.625 91.4918 95.625 90V69.4219C95.6215 66.4268 94.4302 63.5554 92.3124 61.4376C90.1946 59.3198 87.3232 58.1285 84.3281 58.125ZM91.875 90C91.875 90.4973 91.6775 90.9742 91.3258 91.3258C90.9742 91.6775 90.4973 91.875 90 91.875H56.25C55.7527 91.875 55.2758 91.6775 54.9242 91.3258C54.5725 90.9742 54.375 90.4973 54.375 90V69.4219C54.3773 67.5207 55.0962 65.6902 56.3883 64.2956C57.6804 62.901 59.4508 62.0447 61.3462 61.8975C64.795 64.3233 68.9086 65.6252 73.125 65.6252C77.3414 65.6252 81.455 64.3233 84.9038 61.8975C86.7992 62.0447 88.5696 62.901 89.8617 64.2956C91.1538 65.6902 91.8727 67.5207 91.875 69.4219V90Z" fill="white"/>
<path d="M60 45C60 47.5959 60.7698 50.1335 62.212 52.2919C63.6542 54.4503 65.704 56.1325 68.1023 57.1259C70.5005 58.1193 73.1395 58.3792 75.6855 57.8728C78.2315 57.3664 80.5702 56.1163 82.4058 54.2808C84.2413 52.4452 85.4913 50.1066 85.9978 47.5606C86.5042 45.0146 86.2443 42.3756 85.2509 39.9773C84.2575 37.579 82.5752 35.5292 80.4168 34.087C78.2584 32.6448 75.7209 31.875 73.125 31.875C69.6454 31.8795 66.3096 33.2637 63.8492 35.7242C61.3887 38.1846 60.0045 41.5204 60 45ZM82.5 45C82.5 46.8542 81.9501 48.6668 80.92 50.2085C79.8899 51.7502 78.4257 52.9518 76.7126 53.6614C74.9996 54.3709 73.1146 54.5566 71.296 54.1949C69.4774 53.8331 67.807 52.9402 66.4959 51.6291C65.1847 50.318 64.2919 48.6475 63.9301 46.829C63.5684 45.0104 63.7541 43.1254 64.4636 41.4123C65.1732 39.6993 66.3748 38.2351 67.9165 37.205C69.4582 36.1748 71.2708 35.625 73.125 35.625C75.6105 35.628 77.9933 36.6167 79.7508 38.3742C81.5083 40.1317 82.497 42.5145 82.5 45Z" fill="white"/>
<path d="M59.01 28.125H69.375C70.8668 28.125 72.2976 27.5324 73.3525 26.4775C74.4074 25.4226 75 23.9918 75 22.5V7.5C75 6.00816 74.4074 4.57742 73.3525 3.52252C72.2976 2.46763 70.8668 1.875 69.375 1.875H28.125C26.6332 1.875 25.2024 2.46763 24.1475 3.52252C23.0926 4.57742 22.5 6.00816 22.5 7.5V22.5C22.5 23.9918 23.0926 25.4226 24.1475 26.4775C25.2024 27.5324 26.6332 28.125 28.125 28.125H38.49C39.5351 28.122 40.5602 28.4116 41.4492 28.961C42.3383 29.5104 43.0558 30.2977 43.5206 31.2337L47.0719 38.3381C47.2274 38.6501 47.4668 38.9126 47.7632 39.0961C48.0597 39.2796 48.4014 39.3768 48.75 39.3768C49.0986 39.3768 49.4403 39.2796 49.7368 39.0961C50.0332 38.9126 50.2726 38.6501 50.4281 38.3381L53.9794 31.2337C54.4442 30.2977 55.1617 29.5104 56.0508 28.961C56.9398 28.4116 57.9649 28.122 59.01 28.125ZM50.625 29.5575L48.75 33.3075L46.875 29.5575C46.1009 27.9967 44.9051 26.6839 43.4231 25.7679C41.9411 24.852 40.2322 24.3694 38.49 24.375H28.125C27.6277 24.375 27.1508 24.1775 26.7992 23.8258C26.4475 23.4742 26.25 22.9973 26.25 22.5V7.5C26.25 7.00272 26.4475 6.5258 26.7992 6.17417C27.1508 5.82254 27.6277 5.625 28.125 5.625H69.375C69.8723 5.625 70.3492 5.82254 70.7008 6.17417C71.0525 6.5258 71.25 7.00272 71.25 7.5V22.5C71.25 22.9973 71.0525 23.4742 70.7008 23.8258C70.3492 24.1775 69.8723 24.375 69.375 24.375H59.01C57.2678 24.3694 55.5589 24.852 54.0769 25.7679C52.5949 26.6839 51.3991 27.9967 50.625 29.5575Z" fill="white"/>
<path d="M33.75 13.125H63.75C64.2473 13.125 64.7242 12.9275 65.0758 12.5758C65.4275 12.2242 65.625 11.7473 65.625 11.25C65.625 10.7527 65.4275 10.2758 65.0758 9.92418C64.7242 9.57254 64.2473 9.375 63.75 9.375H33.75C33.2527 9.375 32.7758 9.57254 32.4242 9.92418C32.0725 10.2758 31.875 10.7527 31.875 11.25C31.875 11.7473 32.0725 12.2242 32.4242 12.5758C32.7758 12.9275 33.2527 13.125 33.75 13.125Z" fill="white"/>
<path d="M65.625 18.75C65.625 18.2527 65.4275 17.7758 65.0758 17.4242C64.7242 17.0725 64.2473 16.875 63.75 16.875H33.75C33.2527 16.875 32.7758 17.0725 32.4242 17.4242C32.0725 17.7758 31.875 18.2527 31.875 18.75C31.875 19.2473 32.0725 19.7242 32.4242 20.0758C32.7758 20.4275 33.2527 20.625 33.75 20.625H63.75C64.2473 20.625 64.7242 20.4275 65.0758 20.0758C65.4275 19.7242 65.625 19.2473 65.625 18.75Z" fill="white"/>
</svg>
