<svg width="26" height="26" viewBox="0 0 26 26" fill="none" xmlns="http://www.w3.org/2000/svg">
<path d="M13.0001 8.83472C10.7063 8.83472 8.83446 10.7066 8.83446 13.0003C8.83446 15.2941 10.7063 17.166 13.0001 17.166C15.2938 17.166 17.1657 15.2941 17.1657 13.0003C17.1657 10.7066 15.2938 8.83472 13.0001 8.83472ZM25.4938 13.0003C25.4938 11.2753 25.5095 9.56597 25.4126 7.84409C25.3157 5.84409 24.8595 4.06909 23.397 2.60659C21.9313 1.14097 20.1595 0.687844 18.1595 0.590969C16.4345 0.494094 14.7251 0.509719 13.0032 0.509719C11.2782 0.509719 9.56884 0.494094 7.84696 0.590969C5.84696 0.687844 4.07196 1.14409 2.60946 2.60659C1.14384 4.07222 0.690712 5.84409 0.593837 7.84409C0.496962 9.56909 0.512587 11.2785 0.512587 13.0003C0.512587 14.7222 0.496962 16.4347 0.593837 18.1566C0.690712 20.1566 1.14696 21.9316 2.60946 23.3941C4.07509 24.8597 5.84696 25.3128 7.84696 25.4097C9.57196 25.5066 11.2813 25.491 13.0032 25.491C14.7282 25.491 16.4376 25.5066 18.1595 25.4097C20.1595 25.3128 21.9345 24.8566 23.397 23.3941C24.8626 21.9285 25.3157 20.1566 25.4126 18.1566C25.5126 16.4347 25.4938 14.7253 25.4938 13.0003ZM13.0001 19.4097C9.45321 19.4097 6.59071 16.5472 6.59071 13.0003C6.59071 9.45347 9.45321 6.59097 13.0001 6.59097C16.547 6.59097 19.4095 9.45347 19.4095 13.0003C19.4095 16.5472 16.547 19.4097 13.0001 19.4097ZM19.672 7.82534C18.8438 7.82534 18.1751 7.15659 18.1751 6.32847C18.1751 5.50034 18.8438 4.83159 19.672 4.83159C20.5001 4.83159 21.1688 5.50034 21.1688 6.32847C21.1691 6.52511 21.1305 6.71987 21.0554 6.90159C20.9803 7.08331 20.87 7.24842 20.731 7.38747C20.5919 7.52652 20.4268 7.63677 20.2451 7.7119C20.0634 7.78704 19.8686 7.82559 19.672 7.82534Z" fill="white"/>
</svg>
