<svg width="120" height="120" viewBox="0 0 120 120" fill="none" xmlns="http://www.w3.org/2000/svg">
<path d="M117.938 66.9923C117.899 66.6406 117.763 66.3067 117.544 66.0285C117.325 65.7502 117.033 65.5385 116.701 65.4173L107.644 62.1923C106.746 58.5738 105.311 55.1099 103.388 51.9155L107.494 43.253C107.651 42.9338 107.712 42.5759 107.668 42.2229C107.625 41.87 107.48 41.5372 107.251 41.2655C105.446 39.0672 103.43 37.0513 101.232 35.2467C100.96 35.0174 100.627 34.8722 100.274 34.8289C99.9215 34.7856 99.5635 34.8461 99.2444 35.003L90.5819 39.1092C87.3879 37.1867 83.9247 35.7521 80.3069 34.853L77.0819 25.7967C76.9607 25.4642 76.7491 25.1721 76.4708 24.9535C76.1925 24.7348 75.8586 24.5983 75.5069 24.5592C72.6747 24.3136 69.8266 24.3136 66.9944 24.5592C66.6426 24.5983 66.3088 24.7348 66.0305 24.9535C65.7522 25.1721 65.5405 25.4642 65.4194 25.7967L62.1944 34.853C58.5765 35.7521 55.1133 37.1867 51.9194 39.1092L43.2569 35.003C42.9377 34.8461 42.5798 34.7856 42.2268 34.8289C41.8739 34.8722 41.5412 35.0174 41.2694 35.2467C39.0711 37.0513 37.0552 39.0672 35.2506 41.2655C35.0213 41.5372 34.8761 41.87 34.8328 42.2229C34.7895 42.5759 34.85 42.9338 35.0069 43.253L39.1131 51.9155C37.1903 55.1099 35.7557 58.5738 34.8569 62.1923L25.8006 65.4173C25.4681 65.5385 25.176 65.7502 24.9574 66.0285C24.7387 66.3067 24.6022 66.6406 24.5631 66.9923C24.3138 69.8244 24.3138 72.6728 24.5631 75.5048C24.6022 75.8566 24.7387 76.1904 24.9574 76.4687C25.176 76.747 25.4681 76.9587 25.8006 77.0798L34.8569 80.3048C35.756 83.9227 37.1906 87.3859 39.1131 90.5798L35.0069 99.2423C34.8498 99.5618 34.7893 99.92 34.8326 100.273C34.8758 100.627 35.0211 100.96 35.2506 101.232C37.0552 103.43 39.0711 105.446 41.2694 107.25C41.5412 107.48 41.8739 107.625 42.2268 107.668C42.5798 107.712 42.9377 107.651 43.2569 107.494L51.9194 103.388C55.1133 105.31 58.5765 106.745 62.1944 107.644L65.4194 116.7C65.5405 117.033 65.7522 117.325 66.0305 117.544C66.3088 117.762 66.6426 117.899 66.9944 117.938C69.8264 118.187 72.6749 118.187 75.5069 117.938C75.8586 117.899 76.1925 117.762 76.4708 117.544C76.7491 117.325 76.9607 117.033 77.0819 116.7L80.3069 107.644C83.9247 106.745 87.3879 105.31 90.5819 103.388L99.2444 107.494C99.5636 107.651 99.9215 107.711 100.274 107.668C100.627 107.624 100.96 107.479 101.232 107.25C103.43 105.446 105.446 103.43 107.251 101.232C107.48 100.96 107.625 100.627 107.669 100.273C107.712 99.92 107.651 99.5618 107.494 99.2423L103.388 90.5798C105.311 87.3859 106.745 83.9227 107.644 80.3048L116.701 77.0798C117.033 76.9587 117.325 76.747 117.544 76.4687C117.763 76.1904 117.899 75.8566 117.938 75.5048C118.188 72.6728 118.188 69.8244 117.938 66.9923ZM71.2506 91.8755C67.1714 91.8755 63.1838 90.6658 59.792 88.3995C56.4002 86.1332 53.7567 82.912 52.1956 79.1433C50.6346 75.3746 50.2261 71.2276 51.0219 67.2267C51.8178 63.2259 53.7821 59.5508 56.6666 56.6664C59.551 53.7819 63.226 51.8176 67.2269 51.0218C71.2278 50.226 75.3748 50.6344 79.1435 52.1955C82.9122 53.7565 86.1334 56.4001 88.3997 59.7918C90.666 63.1836 91.8756 67.1712 91.8756 71.2505C91.8722 76.7195 89.6981 81.9635 85.8309 85.8307C81.9637 89.6979 76.7197 91.872 71.2506 91.8755Z" fill="white" fill-opacity="0.3"/>
<path d="M22.5 20.6246H26.25V33.7496C26.25 38.2252 28.0279 42.5174 31.1926 45.6821C34.3573 48.8467 38.6495 50.6246 43.125 50.6246C47.6005 50.6246 51.8927 48.8467 55.0574 45.6821C58.2221 42.5174 60 38.2252 60 33.7496V20.6246H63.75C64.2473 20.6246 64.7242 20.4271 65.0758 20.0755C65.4275 19.7238 65.625 19.2469 65.625 18.7496C65.625 18.2523 65.4275 17.7754 65.0758 17.4238C64.7242 17.0722 64.2473 16.8746 63.75 16.8746H59.8894C59.4159 12.7603 57.446 8.96371 54.3547 6.2077C51.2634 3.45169 47.2665 1.92871 43.125 1.92871C38.9835 1.92871 34.9866 3.45169 31.8953 6.2077C28.804 8.96371 26.8341 12.7603 26.3606 16.8746H22.5C22.0027 16.8746 21.5258 17.0722 21.1742 17.4238C20.8225 17.7754 20.625 18.2523 20.625 18.7496C20.625 19.2469 20.8225 19.7238 21.1742 20.0755C21.5258 20.4271 22.0027 20.6246 22.5 20.6246ZM37.5 6.909V11.2496C37.5 11.7469 37.6975 12.2238 38.0492 12.5755C38.4008 12.9271 38.8777 13.1246 39.375 13.1246C39.8723 13.1246 40.3492 12.9271 40.7008 12.5755C41.0525 12.2238 41.25 11.7469 41.25 11.2496V5.77463C42.492 5.57495 43.758 5.57495 45 5.77463V11.2496C45 11.7469 45.1975 12.2238 45.5492 12.5755C45.9008 12.9271 46.3777 13.1246 46.875 13.1246C47.3723 13.1246 47.8492 12.9271 48.2008 12.5755C48.5525 12.2238 48.75 11.7469 48.75 11.2496V6.91088C50.6996 7.83981 52.3901 9.23492 53.6721 10.9728C54.9541 12.7107 55.788 14.7377 56.1 16.8746H30.15C30.4617 14.7374 31.2955 12.71 32.5775 10.9717C33.8595 9.23351 35.5502 7.8381 37.5 6.909ZM47.5912 20.6246L45.7162 24.3746H40.5338L38.6588 20.6246H47.5912ZM30 20.6246H34.4662L37.6969 27.0878C37.8526 27.3994 38.0921 27.6616 38.3886 27.8447C38.685 28.0279 39.0266 28.1248 39.375 28.1246H46.875C47.2234 28.1248 47.565 28.0279 47.8614 27.8447C48.1579 27.6616 48.3974 27.3994 48.5531 27.0878L51.7838 20.6246H56.25V33.7496C56.25 37.2306 54.8672 40.569 52.4058 43.0304C49.9444 45.4918 46.606 46.8746 43.125 46.8746C39.644 46.8746 36.3056 45.4918 33.8442 43.0304C31.3828 40.569 30 37.2306 30 33.7496V20.6246Z" fill="white"/>
<path d="M55.0031 54.5035C54.1721 54.4104 53.3362 54.3678 52.5 54.376H33.75C32.9138 54.3686 32.078 54.4112 31.2469 54.5035C23.2579 55.1376 15.8005 58.7559 10.358 64.6385C4.9156 70.5211 1.88709 78.237 1.875 86.2511V90.0011C1.875 91.4929 2.46763 92.9236 3.52252 93.9785C4.57742 95.0334 6.00816 95.6261 7.5 95.6261H78.75C80.2418 95.6261 81.6726 95.0334 82.7275 93.9785C83.7824 92.9236 84.375 91.4929 84.375 90.0011V86.2511C84.3629 78.237 81.3344 70.5211 75.892 64.6385C70.4495 58.7559 62.9921 55.1376 55.0031 54.5035ZM52.3125 58.126C51.8822 60.2453 50.7324 62.1506 49.058 63.5192C47.3836 64.8878 45.2875 65.6354 43.125 65.6354C40.9625 65.6354 38.8664 64.8878 37.192 63.5192C35.5176 62.1506 34.3678 60.2453 33.9375 58.126H52.3125ZM11.25 91.8761H7.5C7.00272 91.8761 6.52581 91.6785 6.17417 91.3269C5.82254 90.9753 5.625 90.4983 5.625 90.0011V86.2511C5.62687 80.1878 7.60123 74.2897 11.25 69.4473V91.8761ZM20.625 91.8761H15V65.3523C16.7066 63.809 18.5956 62.4803 20.625 61.396V91.8761ZM54.375 91.8761H31.875V80.626H54.375V91.8761ZM61.875 60.001V91.8761H58.125V78.751C58.125 78.2538 57.9275 77.7768 57.5758 77.4252C57.2242 77.0736 56.7473 76.876 56.25 76.876H30C29.5027 76.876 29.0258 77.0736 28.6742 77.4252C28.3225 77.7768 28.125 78.2538 28.125 78.751V91.8761H24.375V59.7704C26.257 59.0991 28.2057 58.632 30.1875 58.3772C30.6878 61.4478 32.264 64.2403 34.6341 66.2556C37.0043 68.2708 40.0139 69.3773 43.125 69.3773C46.2361 69.3773 49.2457 68.2708 51.6159 66.2556C53.986 64.2403 55.5622 61.4478 56.0625 58.3772C58.0601 58.6326 60.0241 59.1041 61.92 59.7835C61.9003 59.855 61.8853 59.9276 61.875 60.001ZM71.25 91.8761H65.625V61.396C67.6554 62.4794 69.5446 63.8088 71.25 65.3541V91.8761ZM80.625 90.0011C80.625 90.4983 80.4275 90.9753 80.0758 91.3269C79.7242 91.6785 79.2473 91.8761 78.75 91.8761H75V69.4491C78.6484 74.2911 80.6227 80.1884 80.625 86.2511V90.0011Z" fill="white"/>
</svg>
