<svg width="40" height="40" viewBox="0 0 40 40" fill="none" xmlns="http://www.w3.org/2000/svg">
<path d="M19.1155 27.8561L24.006 26.8156L25.0465 31.7061L20.156 32.7466L19.1155 27.8561ZM25.2549 8.65823C25.9035 8.52025 26.5802 8.64556 27.1364 9.00657C27.6925 9.36759 28.0825 9.93474 28.2204 10.5833L29.7811 17.9191L23.4858 24.3703L18.5953 25.4108L18.075 22.9655L24.3704 16.5143L23.8501 14.069L11.6238 16.6702L10.5833 11.7796L25.2549 8.65823ZM16.6185 4.10576C12.3735 5.00888 8.73209 7.51143 6.37059 11.1526C4.00909 14.7937 3.20266 19.1366 4.10579 23.3816C5.00892 27.6265 7.51147 31.268 11.1526 33.6295C14.7937 35.991 19.1366 36.7974 23.3816 35.8943C27.6266 34.9912 31.268 32.4886 33.6295 28.8475C35.991 25.2064 36.7975 20.8635 35.8943 16.6185C34.9912 12.3735 32.4886 8.73205 28.8475 6.37055C25.2064 4.00905 20.8635 3.20263 16.6185 4.10576ZM15.8382 0.437848C21.0264 -0.665952 26.4406 0.336466 30.8897 3.22458C35.3388 6.1127 38.4584 10.6499 39.5622 15.8381C40.666 21.0264 39.6636 26.4406 36.7755 30.8897C33.8874 35.3388 29.3502 38.4584 24.1619 39.5622C18.9737 40.666 13.5595 39.6636 9.11041 36.7755C4.66129 33.8874 1.54168 29.3501 0.437884 24.1619C-0.665916 18.9737 0.336502 13.5595 3.22462 9.11037C6.11273 4.66125 10.65 1.54165 15.8382 0.437848V0.437848Z" fill="#004161"/>
</svg>
