<svg width="730" height="750" viewBox="0 0 730 750" fill="none" xmlns="http://www.w3.org/2000/svg">
<circle cx="120" cy="140" r="54.072" stroke="white" stroke-opacity="0.2" stroke-width="3"/>
<circle cx="120" cy="140" r="81.2119" stroke="white" stroke-opacity="0.2" stroke-width="3"/>
<circle cx="120" cy="140" r="109.644" stroke="white" stroke-opacity="0.2" stroke-width="3"/>
<circle cx="120" cy="140" r="136.784" stroke="white" stroke-opacity="0.2" stroke-width="3"/>
<circle cx="120" cy="140" r="165.216" stroke="white" stroke-opacity="0.2" stroke-width="3"/>
<circle cx="120" cy="140" r="192.356" stroke="white" stroke-opacity="0.2" stroke-width="3"/>
<circle cx="120" cy="140" r="220.788" stroke="white" stroke-opacity="0.2" stroke-width="3"/>
<circle cx="120" cy="140" r="247.928" stroke="white" stroke-opacity="0.2" stroke-width="3"/>
<circle cx="120" cy="140" r="276.36" stroke="white" stroke-opacity="0.2" stroke-width="3"/>
<circle cx="120" cy="140" r="303.5" stroke="white" stroke-opacity="0.2" stroke-width="3"/>
<circle cx="120" cy="140" r="330.64" stroke="white" stroke-opacity="0.2" stroke-width="3"/>
<circle cx="120" cy="140" r="359.072" stroke="white" stroke-opacity="0.2" stroke-width="3"/>
<circle cx="120" cy="140" r="386.212" stroke="white" stroke-opacity="0.2" stroke-width="3"/>
<circle cx="120" cy="140" r="414.644" stroke="white" stroke-opacity="0.2" stroke-width="3"/>
<circle cx="120" cy="140" r="441.784" stroke="white" stroke-opacity="0.2" stroke-width="3"/>
<circle cx="120" cy="140" r="470.216" stroke="white" stroke-opacity="0.2" stroke-width="3"/>
<circle cx="120" cy="140" r="497.356" stroke="white" stroke-opacity="0.2" stroke-width="3"/>
<circle cx="120" cy="140" r="525.788" stroke="white" stroke-opacity="0.2" stroke-width="3"/>
<circle cx="120" cy="140" r="552.928" stroke="white" stroke-opacity="0.2" stroke-width="3"/>
<circle cx="120" cy="140" r="581.36" stroke="white" stroke-opacity="0.2" stroke-width="3"/>
<circle cx="120" cy="140" r="608.5" stroke="white" stroke-opacity="0.2" stroke-width="3"/>
</svg>
