<svg width="120" height="120" viewBox="0 0 120 120" fill="none" xmlns="http://www.w3.org/2000/svg">
<path d="M78.0185 63.75C79.6411 58.9106 80.5198 53.8531 80.6248 48.75C80.6248 38.8313 75.881 37.5 71.2498 37.5C66.6185 37.5 61.8748 38.8313 61.8748 48.75C61.9797 53.8531 62.8584 58.9106 64.481 63.75H78.0185Z" fill="white" fill-opacity="0.3"/>
<path d="M49.0875 64.7076C49.6312 65.1201 50.2125 65.5139 50.8312 65.9076C52.4999 64.5168 54.6027 63.7539 56.775 63.7514H60.5437C58.987 58.722 58.1784 53.491 58.1437 48.2263C51.525 44.3076 48.075 47.0826 45.5812 50.4763C42.8437 54.2076 41.1 58.8201 49.0875 64.7076Z" fill="white" fill-opacity="0.3"/>
<path d="M91.8565 66.0575C92.419 65.7013 92.9628 65.345 93.469 64.97C101.532 59.1951 99.844 54.5638 97.144 50.7951C94.6503 47.3263 91.1815 44.4763 84.3753 48.5451C84.2866 53.7022 83.4723 58.8212 81.9565 63.7513H85.7253C87.9813 63.75 90.1607 64.5697 91.8565 66.0575Z" fill="white" fill-opacity="0.3"/>
<path d="M56.775 67.5C55.9747 67.5009 55.1839 67.6725 54.4553 68.0034C53.7266 68.3343 53.077 68.8168 52.5497 69.4188C52.0225 70.0208 51.6297 70.7283 51.3977 71.4942C51.1657 72.2601 51.0998 73.0666 51.2044 73.86L51.9937 79.7775C57.2175 83.2594 61.7793 86.25 71.2499 86.25C80.7206 86.25 85.2824 83.2594 90.5062 79.7775L91.2955 73.8619C91.4004 73.0684 91.3347 72.2616 91.1028 71.4955C90.8709 70.7294 90.4782 70.0216 89.9509 69.4194C89.4236 68.8172 88.7739 68.3345 88.0451 68.0035C87.3164 67.6725 86.5253 67.5008 85.7249 67.5H56.775Z" fill="white" fill-opacity="0.3"/>
<path d="M116.25 75C104.438 75 98.4732 78.9731 92.7094 82.815C87.1669 86.5106 81.9375 90 71.25 90C60.5625 90 55.3332 86.5106 49.7907 82.815C44.0269 78.9731 38.0625 75 26.25 75C25.7528 75 25.2759 75.1975 24.9242 75.5492C24.5726 75.9008 24.375 76.3777 24.375 76.875V111.876C24.2988 113.449 24.8472 114.988 25.9008 116.159C26.9543 117.329 28.4277 118.036 30 118.125H112.5C114.072 118.036 115.546 117.329 116.599 116.159C117.653 114.988 118.201 113.449 118.125 111.876V76.875C118.125 76.3777 117.928 75.9008 117.576 75.5492C117.224 75.1975 116.747 75 116.25 75ZM37.5 110.625C36.3875 110.625 35.3 110.295 34.375 109.677C33.4499 109.059 32.729 108.18 32.3032 107.153C31.8775 106.125 31.7661 104.994 31.9831 103.903C32.2002 102.811 32.7359 101.809 33.5226 101.023C34.3092 100.236 35.3115 99.7001 36.4027 99.4831C37.4938 99.266 38.6248 99.3774 39.6526 99.8032C40.6805 100.229 41.559 100.95 42.1771 101.875C42.7951 102.8 43.125 103.887 43.125 105C43.125 106.492 42.5324 107.923 41.4775 108.977C40.4226 110.032 38.9919 110.625 37.5 110.625ZM73.125 112.5C72.0125 112.5 70.925 112.17 70 111.552C69.0749 110.934 68.354 110.055 67.9282 109.028C67.5025 108 67.3911 106.869 67.6081 105.778C67.8252 104.686 68.3609 103.684 69.1476 102.898C69.9342 102.111 70.9365 101.575 72.0277 101.358C73.1188 101.141 74.2498 101.252 75.2776 101.678C76.3055 102.104 77.184 102.825 77.8021 103.75C78.4201 104.675 78.75 105.762 78.75 106.875C78.75 108.367 78.1574 109.798 77.1025 110.852C76.0476 111.907 74.6169 112.5 73.125 112.5ZM101.25 101.25C100.138 101.25 99.05 100.92 98.125 100.302C97.1999 99.6839 96.479 98.8054 96.0532 97.7776C95.6275 96.7498 95.5161 95.6188 95.7331 94.5276C95.9502 93.4365 96.4859 92.4342 97.2726 91.6475C98.0592 90.8609 99.0615 90.3251 100.153 90.1081C101.244 89.891 102.375 90.0024 103.403 90.4282C104.43 90.8539 105.309 91.5749 105.927 92.4999C106.545 93.4249 106.875 94.5125 106.875 95.625C106.875 97.1168 106.282 98.5476 105.228 99.6025C104.173 100.657 102.742 101.25 101.25 101.25Z" fill="white" fill-opacity="0.3"/>
<path d="M84.8908 29.3C84.3208 29.1425 83.7201 28.99 83.0889 28.8425C83.5501 28.4075 83.9964 27.97 84.4276 27.53C91.0089 20.8663 91.7083 15.8882 86.7695 10.8857C81.122 5.16879 75.9451 7.51066 70.2695 13.2575C69.8408 13.6925 69.4182 14.1369 69.002 14.5907C68.8557 13.9457 68.7039 13.3288 68.5464 12.74C66.467 4.93441 63.1426 0.258161 55.4214 2.37879C48.6508 4.19379 46.7964 8.86066 49.2339 17.9825C49.7229 19.7929 50.3023 21.5777 50.9701 23.33C50.4845 23.2987 49.9975 23.2937 49.5114 23.315C47.5524 23.4044 45.6336 23.9021 43.8781 24.7762C42.1226 25.6502 40.5691 26.8813 39.317 28.3907C33.827 34.9963 28.5283 41.9113 23.567 48.9425C16.052 59.6119 9.17859 70.719 2.98325 82.205C2.04695 83.918 1.68898 85.8876 1.96265 87.8205C2.23631 89.7534 3.12697 91.5462 4.502 92.9319C5.79267 94.2419 7.45714 95.1203 9.26696 95.4466C11.0768 95.773 12.9432 95.5312 14.6101 94.7544C34.5381 85.3678 53.0897 73.3018 69.7501 58.8913C71.2226 57.6224 72.4161 56.0621 73.2551 54.3087C74.0942 52.5554 74.5607 50.6471 74.6251 48.7044C74.6455 48.175 74.6367 47.6448 74.5989 47.1163C76.3876 47.8007 78.1051 48.3725 79.6708 48.8038C87.512 50.9413 93.0714 50.2588 95.1189 42.5488C96.9489 35.7182 93.887 31.7563 84.8908 29.3ZM69.3414 19.9963L69.3751 19.9532C70.4838 18.5352 71.6733 17.1824 72.9376 15.9013C79.1251 9.64066 81.4651 10.8594 84.1032 13.5294C86.1864 15.6388 88.547 18.0294 81.7614 24.9013C80.5066 26.165 79.186 27.3617 77.8051 28.4863L77.7939 28.4975C74.673 31.0825 71.2938 33.3388 67.7101 35.2307L62.7132 30.1682C64.5599 26.5545 66.7815 23.1451 69.3414 19.9963ZM56.4132 5.99941C57.1096 5.70576 57.859 5.55839 58.6147 5.56645C59.3704 5.57452 60.1164 5.73784 60.8064 6.04629C62.432 6.98379 63.8064 9.55629 64.9201 13.7094C65.2951 15.0707 65.6158 16.6044 65.9082 18.2825C63.661 21.13 61.663 24.1656 59.9364 27.3557C58.6419 26.0802 57.1124 25.0678 55.4326 24.3744C54.4006 21.9888 53.5403 19.5326 52.8582 17.0244C50.357 7.62879 53.5689 6.76816 56.4132 5.99941ZM67.2883 56.0507C60.6907 61.7537 53.7867 67.0923 46.607 72.0425C46.5901 72.0219 46.5695 72.0013 46.5508 71.9807L39.3751 64.7132C39.2072 64.5201 39.0015 64.3634 38.7707 64.2528C38.5399 64.1422 38.2889 64.08 38.0332 64.07C37.7775 64.0601 37.5224 64.1026 37.2837 64.195C37.045 64.2873 36.8278 64.4276 36.6454 64.607C36.4629 64.7865 36.3192 65.0015 36.2229 65.2386C36.1267 65.4757 36.0801 65.7301 36.0858 65.9859C36.0916 66.2418 36.1497 66.4938 36.2565 66.7263C36.3633 66.9589 36.5167 67.1671 36.707 67.3382L43.457 74.1763C33.7429 80.6414 23.5675 86.385 13.0126 91.3607C12.0482 91.8078 10.9691 91.9454 9.92336 91.7548C8.87761 91.5641 7.91651 91.0544 7.172 90.2957C6.37326 89.4741 5.85677 88.4196 5.69732 87.285C5.53787 86.1503 5.74375 84.9943 6.28513 83.9844C8.39888 80.0657 10.5995 76.1807 12.887 72.3294L16.5864 76.0794C16.7583 76.2593 16.9643 76.4031 17.1923 76.5025C17.4203 76.602 17.6659 76.655 17.9146 76.6586C18.1634 76.6622 18.4104 76.6163 18.6412 76.5235C18.872 76.4306 19.0821 76.2928 19.2591 76.118C19.4361 75.9433 19.5766 75.735 19.6723 75.5054C19.7681 75.2757 19.8172 75.0294 19.8167 74.7806C19.8163 74.5318 19.7664 74.2856 19.6699 74.0563C19.5733 73.827 19.4321 73.6192 19.2545 73.445L14.942 69.08L14.8801 69.02C18.6058 62.9132 22.5339 56.9263 26.6326 51.1157C28.9764 47.7894 31.3939 44.4957 33.8851 41.2344L39.5664 46.9888C39.7395 47.164 39.9454 47.3034 40.1724 47.399C40.3993 47.4946 40.6429 47.5446 40.8892 47.546C41.1354 47.5475 41.3796 47.5005 41.6077 47.4076C41.8358 47.3147 42.0434 47.1778 42.2186 47.0047C42.3938 46.8316 42.5331 46.6257 42.6287 46.3988C42.7244 46.1718 42.7743 45.9282 42.7758 45.6819C42.7773 45.4357 42.7303 45.1915 42.6374 44.9634C42.5445 44.7353 42.4076 44.5277 42.2345 44.3525L36.1989 38.24C38.1651 35.7238 40.1651 33.2432 42.1989 30.7982C43.1086 29.6896 44.2414 28.7849 45.5239 28.1431C46.8063 27.5013 48.2094 27.1367 49.6421 27.073C51.0747 27.0094 52.5047 27.248 53.839 27.7736C55.1733 28.2991 56.3819 29.0996 57.3864 30.1232C57.5626 30.3107 68.6364 41.51 67.8395 40.7075C68.8542 41.7407 69.6469 42.9704 70.1689 44.3211C70.6909 45.6718 70.9312 47.1149 70.8751 48.5619C70.8279 49.9922 70.4847 51.3972 69.867 52.6881C69.2493 53.979 68.3706 55.1278 67.2864 56.0619L67.2883 56.0507ZM91.5001 41.5775C90.5251 45.2413 89.0626 47.4782 80.6626 45.1813C78.2336 44.4942 75.8533 43.6455 73.5376 42.6407C72.8357 40.9324 71.8078 39.3772 70.5114 38.0619L70.4607 38.0094C73.6406 36.2449 76.6646 34.2132 79.5001 31.9363C81.1764 32.2382 82.6164 32.5588 83.8914 32.915C93.1407 35.4369 92.2651 38.6994 91.5001 41.5775Z" fill="white"/>
</svg>
