<svg width="1583" height="251" viewBox="0 0 1583 251" fill="none" xmlns="http://www.w3.org/2000/svg">
<path d="M49.431 16.0059L47.8268 17.2004L47.8331 17.2087L49.431 16.0059ZM44.6623 55.5595L43.396 54.0114L43.388 54.018L44.6623 55.5595ZM2.55305 58.6212L0.567433 58.3818L0.328038 60.3674L2.31366 60.6068L2.55305 58.6212ZM9.2561 3.02378L9.49549 1.03816L7.50987 0.798766L7.27048 2.78439L9.2561 3.02378ZM38.2266 47.4509L39.5013 48.992L39.5076 48.9868L39.5139 48.9815L38.2266 47.4509ZM41.243 22.4321L39.6287 23.6128L39.6336 23.6195L39.6385 23.6261L41.243 22.4321ZM18.9527 14.8293L19.1921 12.8437L17.2065 12.6043L16.9671 14.5899L18.9527 14.8293ZM14.7777 49.4586L12.7921 49.2192L12.5527 51.2048L14.5383 51.4442L14.7777 49.4586ZM31.0968 7.67147C38.198 8.52761 43.7279 11.6955 47.8269 17.2004L51.0352 14.8115C46.2573 8.39486 39.724 4.68263 31.5756 3.70023L31.0968 7.67147ZM47.8331 17.2087C51.9949 22.738 53.6521 29.1161 52.7652 36.4722L56.7365 36.951C57.7392 28.6338 55.8499 21.2082 51.029 14.8032L47.8331 17.2087ZM52.7652 36.4722C51.8784 43.8282 48.7527 49.6297 43.396 54.0115L45.9286 57.1076C52.1336 52.0319 55.7337 45.2681 56.7365 36.951L52.7652 36.4722ZM43.388 54.018C38.0981 58.391 31.9737 60.1538 24.8726 59.2976L24.3938 63.2689C32.5422 64.2513 39.7706 62.1982 45.9366 57.101L43.388 54.018ZM24.8726 59.2976L2.79245 56.6355L2.31366 60.6068L24.3938 63.2689L24.8726 59.2976ZM4.53867 58.8606L11.2417 3.26318L7.27048 2.78439L0.567433 58.3818L4.53867 58.8606ZM9.0167 5.0094L31.0968 7.67147L31.5756 3.70023L9.49549 1.03816L9.0167 5.0094ZM25.6578 52.7848C30.9604 53.4241 35.6332 52.1913 39.5013 48.992L36.9519 45.9097C34.0176 48.3367 30.4708 49.3361 26.1366 48.8135L25.6578 52.7848ZM39.5139 48.9815C43.3718 45.7366 45.583 41.2393 46.2524 35.687L42.2812 35.2082C41.7121 39.9282 39.8964 43.433 36.9392 45.9203L39.5139 48.9815ZM46.2524 35.687C46.9217 30.1355 45.8407 25.2601 42.8474 21.238L39.6385 23.6261C41.9155 26.6857 42.8503 30.4873 42.2812 35.2082L46.2524 35.687ZM42.8572 21.2513C39.87 17.1674 35.6249 14.8249 30.3116 14.1843L29.8328 18.1555C34.1564 18.6768 37.3584 20.509 39.6287 23.6128L42.8572 21.2513ZM30.3116 14.1843L19.1921 12.8437L18.7133 16.8149L29.8328 18.1555L30.3116 14.1843ZM16.9671 14.5899L12.7921 49.2192L16.7633 49.6979L20.9383 15.0687L16.9671 14.5899ZM14.5383 51.4442L25.6578 52.7848L26.1366 48.8135L15.0171 47.4729L14.5383 51.4442ZM69.8644 56.1L68.3156 54.8346L66.0151 57.6504L69.625 58.0856L69.8644 56.1ZM93.4536 58.944L95.4392 59.1834L95.6786 57.1978L93.693 56.9584L93.4536 58.944ZM92.1896 69.4281L91.9502 71.4137L93.9358 71.6531L94.1752 69.6675L92.1896 69.4281ZM54.6216 64.8988L52.636 64.6594L52.3966 66.645L54.3822 66.8844L54.6216 64.8988ZM55.675 56.162L54.1274 54.8951L53.759 55.3452L53.6893 55.9226L55.675 56.162ZM83.1733 22.572L84.7209 23.8389L87.0268 21.0221L83.4127 20.5864L83.1733 22.572ZM60.6166 19.8525L58.631 19.6131L58.3916 21.5987L60.3772 21.8381L60.6166 19.8525ZM61.8806 9.36841L62.12 7.38279L60.1344 7.14339L59.895 9.12901L61.8806 9.36841ZM98.4161 13.7733L100.402 14.0127L100.641 12.027L98.6555 11.7876L98.4161 13.7733ZM97.3723 22.4306L98.9211 23.696L99.2884 23.2464L99.3579 22.67L97.3723 22.4306ZM69.625 58.0856L93.2142 60.9297L93.693 56.9584L70.1038 54.1144L69.625 58.0856ZM91.4679 58.7046L90.2039 69.1887L94.1752 69.6675L95.4392 59.1834L91.4679 58.7046ZM92.429 67.4425L54.861 62.9131L54.3822 66.8844L91.9502 71.4137L92.429 67.4425ZM56.6072 65.1382L57.6606 56.4014L53.6893 55.9226L52.636 64.6594L56.6072 65.1382ZM57.2225 57.4289L84.7209 23.8389L81.6257 21.3051L54.1274 54.8951L57.2225 57.4289ZM83.4127 20.5864L60.856 17.8669L60.3772 21.8381L82.9339 24.5576L83.4127 20.5864ZM62.6023 20.0919L63.8663 9.6078L59.895 9.12901L58.631 19.6131L62.6023 20.0919ZM61.6412 11.354L98.1767 15.7589L98.6555 11.7876L62.12 7.38279L61.6412 11.354ZM96.4304 13.5339L95.3867 22.1912L99.3579 22.67L100.402 14.0127L96.4304 13.5339ZM95.8235 21.1652L68.3156 54.8346L71.4132 57.3654L98.9211 23.696L95.8235 21.1652ZM106.133 14.7036L106.372 12.718L104.386 12.4786L104.147 14.4642L106.133 14.7036ZM117.093 16.0251L119.079 16.2645L119.318 14.2788L117.333 14.0394L117.093 16.0251ZM110.39 71.6225L110.151 73.6081L112.136 73.8475L112.376 71.8619L110.39 71.6225ZM99.4296 70.301L97.444 70.0616L97.2046 72.0472L99.1902 72.2866L99.4296 70.301ZM105.893 16.6892L116.854 18.0107L117.333 14.0394L106.372 12.718L105.893 16.6892ZM115.108 15.7857L108.405 71.3831L112.376 71.8619L119.079 16.2645L115.108 15.7857ZM110.63 69.6368L99.669 68.3154L99.1902 72.2866L110.151 73.6081L110.63 69.6368ZM101.415 70.5404L108.118 14.943L104.147 14.4642L97.444 70.0616L101.415 70.5404ZM156.423 77.1724L154.464 77.5732L154.753 78.9854L156.184 79.158L156.423 77.1724ZM154.294 66.7627L156.253 66.3619L155.964 64.9496L154.533 64.777L154.294 66.7627ZM132.134 64.091L132.374 62.1054L130.943 61.9328L130.326 63.236L132.134 64.091ZM127.592 73.6964L127.353 75.682L128.784 75.8545L129.4 74.5514L127.592 73.6964ZM115.758 72.2696L113.963 71.3877L112.72 73.9178L115.518 74.2552L115.758 72.2696ZM141.92 19.0182L142.159 17.0326L140.75 16.8628L140.125 18.1363L141.92 19.0182ZM155.501 20.6557L157.454 20.2232L157.148 18.8397L155.741 18.6701L155.501 20.6557ZM168.337 78.6087L168.097 80.5944L170.9 80.9322L170.29 78.1763L168.337 78.6087ZM136.864 54.2665L135.058 53.4077L133.864 55.9193L136.625 56.2522L136.864 54.2665ZM152.114 56.1051L151.874 58.0907L154.635 58.4236L154.072 55.7002L152.114 56.1051ZM147.228 32.4703L149.186 32.0654L147.98 26.2305L145.422 31.6115L147.228 32.4703ZM158.383 76.7716L156.253 66.3619L152.334 67.1635L154.464 77.5732L158.383 76.7716ZM154.533 64.777L132.374 62.1054L131.895 66.0766L154.054 68.7483L154.533 64.777ZM130.326 63.236L125.784 72.8413L129.4 74.5514L133.942 64.946L130.326 63.236ZM127.831 71.7107L115.997 70.284L115.518 74.2552L127.353 75.682L127.831 71.7107ZM117.553 73.1515L143.715 19.9002L140.125 18.1363L113.963 71.3877L117.553 73.1515ZM141.68 21.0039L155.262 22.6413L155.741 18.6701L142.159 17.0326L141.68 21.0039ZM153.549 21.0882L166.384 79.0412L170.29 78.1763L157.454 20.2232L153.549 21.0882ZM168.576 76.6231L156.663 75.1867L156.184 79.158L168.097 80.5944L168.576 76.6231ZM136.625 56.2522L151.874 58.0907L152.353 54.1195L137.104 52.2809L136.625 56.2522ZM154.072 55.7002L149.186 32.0654L145.269 32.8752L150.155 56.51L154.072 55.7002ZM145.422 31.6115L135.058 53.4077L138.671 55.1253L149.034 33.3291L145.422 31.6115ZM187.548 70.2885L185.563 70.0491L185.323 72.0347L187.309 72.2741L187.548 70.2885ZM208.755 72.8452L210.74 73.0846L210.98 71.099L208.994 70.8596L208.755 72.8452ZM207.491 83.3293L207.251 85.3149L209.237 85.5543L209.476 83.5687L207.491 83.3293ZM175.324 79.4511L173.338 79.2117L173.099 81.1973L175.084 81.4367L175.324 79.4511ZM177.344 62.6925L179.33 62.9319L179.753 59.4249L176.528 60.8666L177.344 62.6925ZM172.234 64.9772L170.248 64.7378L169.826 68.2448L173.05 66.803L172.234 64.9772ZM173.556 54.0166L172.739 52.1908L171.705 52.653L171.57 53.7772L173.556 54.0166ZM178.666 51.7318L179.482 53.5577L180.516 53.0955L180.651 51.9712L178.666 51.7318ZM182.027 23.8537L182.266 21.8681L180.281 21.6287L180.041 23.6143L182.027 23.8537ZM192.987 25.1752L194.973 25.4146L195.212 23.4289L193.227 23.1896L192.987 25.1752ZM190.412 46.5405L188.426 46.3011L188.006 49.7808L191.216 48.3717L190.412 46.5405ZM201.643 41.6093L203.628 41.8487L204.048 38.369L200.839 39.7781L201.643 41.6093ZM200.321 52.57L201.125 54.4012L202.17 53.9424L202.307 52.8093L200.321 52.57ZM189.09 57.5011L188.286 55.6698L187.241 56.1286L187.104 57.2617L189.09 57.5011ZM187.309 72.2741L208.515 74.8308L208.994 70.8596L187.788 68.3029L187.309 72.2741ZM206.769 72.6058L205.505 83.0899L209.476 83.5687L210.74 73.0846L206.769 72.6058ZM207.73 81.3437L175.563 77.4655L175.084 81.4367L207.251 85.3149L207.73 81.3437ZM177.309 79.6905L179.33 62.9319L175.359 62.4531L173.338 79.2117L177.309 79.6905ZM176.528 60.8666L171.418 63.1514L173.05 66.803L178.161 64.5183L176.528 60.8666ZM174.22 65.2166L175.541 54.256L171.57 53.7772L170.248 64.7378L174.22 65.2166ZM174.372 55.8424L179.482 53.5577L177.849 49.906L172.739 52.1908L174.372 55.8424ZM180.651 51.9712L184.012 24.0931L180.041 23.6143L176.68 51.4924L180.651 51.9712ZM181.787 25.8393L192.748 27.1608L193.227 23.1896L182.266 21.8681L181.787 25.8393ZM191.002 24.9358L188.426 46.3011L192.397 46.7799L194.973 25.4146L191.002 24.9358ZM191.216 48.3717L202.447 43.4406L200.839 39.7781L189.608 44.7092L191.216 48.3717ZM199.657 41.3699L198.335 52.3306L202.307 52.8093L203.628 41.8487L199.657 41.3699ZM199.517 50.7387L188.286 55.6698L189.894 59.3323L201.125 54.4012L199.517 50.7387ZM187.104 57.2617L185.563 70.0491L189.534 70.5279L191.076 57.7405L187.104 57.2617ZM250.973 88.5717L249.013 88.9725L249.302 90.3847L250.733 90.5573L250.973 88.5717ZM248.844 78.1619L250.803 77.7612L250.514 76.3489L249.083 76.1763L248.844 78.1619ZM226.684 75.4903L226.923 73.5047L225.492 73.3321L224.876 74.6353L226.684 75.4903ZM222.142 85.0957L221.902 87.0813L223.333 87.2538L223.95 85.9507L222.142 85.0957ZM210.307 83.6689L208.512 82.787L207.269 85.3171L210.068 85.6545L210.307 83.6689ZM236.469 30.4175L236.709 28.4319L235.3 28.2621L234.674 29.5356L236.469 30.4175ZM250.051 32.055L252.004 31.6225L251.697 30.239L250.29 30.0694L250.051 32.055ZM262.887 90.008L262.647 91.9937L265.45 92.3315L264.839 89.5755L262.887 90.008ZM231.414 65.6658L229.608 64.807L228.414 67.3186L231.175 67.6515L231.414 65.6658ZM246.664 67.5044L246.424 69.49L249.185 69.8229L248.622 67.0995L246.664 67.5044ZM241.777 43.8696L243.736 43.4647L242.53 37.6298L239.971 43.0108L241.777 43.8696ZM252.932 88.1709L250.803 77.7612L246.884 78.5627L249.013 88.9725L252.932 88.1709ZM249.083 76.1763L226.923 73.5047L226.445 77.4759L248.604 80.1476L249.083 76.1763ZM224.876 74.6353L220.334 84.2406L223.95 85.9507L228.492 76.3453L224.876 74.6353ZM222.381 83.11L210.547 81.6832L210.068 85.6545L221.902 87.0813L222.381 83.11ZM212.102 84.5508L238.265 31.2994L234.674 29.5356L208.512 82.787L212.102 84.5508ZM236.23 32.4032L249.812 34.0406L250.29 30.0694L236.709 28.4319L236.23 32.4032ZM248.098 32.4875L260.934 90.4405L264.839 89.5755L252.004 31.6225L248.098 32.4875ZM263.126 88.0224L251.212 86.586L250.733 90.5573L262.647 91.9937L263.126 88.0224ZM231.175 67.6515L246.424 69.49L246.903 65.5188L231.653 63.6802L231.175 67.6515ZM248.622 67.0995L243.736 43.4647L239.819 44.2745L244.705 67.9093L248.622 67.0995ZM239.971 43.0108L229.608 64.807L233.22 66.5246L243.584 44.7284L239.971 43.0108ZM329.394 41.6209L331.38 41.8603L331.619 39.8747L329.633 39.6353L329.394 41.6209ZM322.691 97.2183L322.452 99.2039L324.437 99.4433L324.677 97.4577L322.691 97.2183ZM311.81 95.9064L309.824 95.667L309.585 97.6526L311.57 97.892L311.81 95.9064ZM316.157 59.8475L318.143 60.0869L319 52.9806L314.583 58.6135L316.157 59.8475ZM297.398 83.7742L297.159 85.7598L298.277 85.8946L298.972 85.0082L297.398 83.7742ZM296.128 83.621L294.307 84.448L294.772 85.472L295.888 85.6066L296.128 83.621ZM283.583 56.0009L285.404 55.1739L282.452 48.6738L281.598 55.7615L283.583 56.0009ZM279.246 91.9803L279.006 93.966L280.992 94.2054L281.231 92.2197L279.246 91.9803ZM268.285 90.6589L266.299 90.4195L266.06 92.4051L268.046 92.6445L268.285 90.6589ZM274.988 35.0615L275.227 33.0759L273.242 32.8365L273.002 34.8221L274.988 35.0615ZM286.266 36.4213L288.088 35.5952L287.623 34.5703L286.506 34.4356L286.266 36.4213ZM299.061 64.6356L297.24 65.4616L298.603 68.4686L300.637 65.8674L299.061 64.6356ZM318.116 40.2611L318.355 38.2755L317.235 38.1405L316.54 39.0294L318.116 40.2611ZM327.408 41.3815L320.705 96.9789L324.677 97.4577L331.38 41.8603L327.408 41.3815ZM322.93 95.2327L312.049 93.9208L311.57 97.892L322.452 99.2039L322.93 95.2327ZM313.795 96.1458L318.143 60.0869L314.172 59.6081L309.824 95.667L313.795 96.1458ZM314.583 58.6135L295.824 82.5402L298.972 85.0082L317.731 61.0815L314.583 58.6135ZM297.638 81.7886L296.367 81.6353L295.888 85.6066L297.159 85.7598L297.638 81.7886ZM297.949 82.7939L285.404 55.1739L281.762 56.8279L294.307 84.448L297.949 82.7939ZM281.598 55.7615L277.26 91.7409L281.231 92.2197L285.569 56.2403L281.598 55.7615ZM279.485 89.9947L268.524 88.6733L268.046 92.6445L279.006 93.966L279.485 89.9947ZM270.271 90.8983L276.974 35.3009L273.002 34.8221L266.299 90.4195L270.271 90.8983ZM274.749 37.0471L286.027 38.4069L286.506 34.4356L275.227 33.0759L274.749 37.0471ZM284.445 37.2473L297.24 65.4616L300.883 63.8096L288.088 35.5952L284.445 37.2473ZM300.637 65.8674L319.691 41.4929L316.54 39.0294L297.485 63.4038L300.637 65.8674ZM317.876 42.2468L329.155 43.6065L329.633 39.6353L318.355 38.2755L317.876 42.2468ZM383.755 48.1748L385.368 49.3564L387.388 46.5984L383.994 46.1892L383.755 48.1748ZM360.604 79.7911L358.99 78.6095L358.681 79.0319L358.618 79.5517L360.604 79.7911ZM357.99 101.474L357.75 103.46L359.736 103.699L359.975 101.713L357.99 101.474ZM347.109 100.162L345.123 99.9228L344.884 101.908L346.869 102.148L347.109 100.162ZM349.723 78.4792L351.708 78.7186L351.771 78.2007L351.572 77.7183L349.723 78.4792ZM334.829 42.2762L335.068 40.2905L331.682 39.8822L332.979 43.0371L334.829 42.2762ZM347.219 43.77L349.091 43.0655L348.664 41.9296L347.459 41.7844L347.219 43.77ZM356.496 68.4176L354.624 69.122L355.977 72.7179L358.146 69.5467L356.496 68.4176ZM371.364 46.681L371.604 44.6954L370.399 44.5501L369.714 45.5518L371.364 46.681ZM382.141 46.9933L358.99 78.6095L362.218 80.9727L385.368 49.3564L382.141 46.9933ZM358.618 79.5517L356.004 101.235L359.975 101.713L362.59 80.0305L358.618 79.5517ZM358.229 99.4884L347.348 98.1766L346.869 102.148L357.75 103.46L358.229 99.4884ZM349.094 100.402L351.708 78.7186L347.737 78.2398L345.123 99.9228L349.094 100.402ZM351.572 77.7183L336.679 41.5153L332.979 43.0371L347.873 79.2401L351.572 77.7183ZM334.59 44.2618L346.98 45.7556L347.459 41.7844L335.068 40.2905L334.59 44.2618ZM345.347 44.4745L354.624 69.122L358.368 67.7131L349.091 43.0655L345.347 44.4745ZM358.146 69.5467L373.015 47.8102L369.714 45.5518L354.845 67.2884L358.146 69.5467ZM371.125 48.6667L383.515 50.1605L383.994 46.1892L371.604 44.6954L371.125 48.6667ZM433.689 110.601L431.712 110.906L431.944 112.405L433.45 112.586L433.689 110.601ZM424.825 53.1264L425.064 51.1408L422.446 50.8252L422.848 53.4313L424.825 53.1264ZM436.341 54.5149L438.324 54.2503L438.119 52.7147L436.581 52.5293L436.341 54.5149ZM442.015 97.0196L440.032 97.2842L441.013 104.634L443.861 97.7877L442.015 97.0196ZM458.58 57.1961L458.82 55.2105L457.316 55.0292L456.734 56.428L458.58 57.1961ZM467.953 58.3261L469.928 58.0153L469.693 56.5215L468.192 56.3405L467.953 58.3261ZM474.658 100.955L472.682 101.266L473.831 108.565L476.521 101.683L474.658 100.955ZM490.271 61.0169L490.51 59.0312L488.972 58.8458L488.408 60.2887L490.271 61.0169ZM501.787 62.4054L503.635 63.1713L504.645 60.7354L502.027 60.4197L501.787 62.4054ZM479.517 116.126L479.278 118.112L480.784 118.293L481.365 116.892L479.517 116.126ZM467.047 114.622L465.072 114.938L465.31 116.428L466.808 116.608L467.047 114.622ZM460.987 76.6642L462.962 76.3489L461.855 69.4102L459.142 75.8922L460.987 76.6642ZM446.159 112.104L445.919 114.09L447.42 114.271L448.004 112.876L446.159 112.104ZM435.666 110.296L426.801 52.8216L422.848 53.4313L431.712 110.906L435.666 110.296ZM424.585 55.112L436.102 56.5005L436.581 52.5293L425.064 51.1408L424.585 55.112ZM434.359 54.7795L440.032 97.2842L443.997 96.755L438.324 54.2503L434.359 54.7795ZM443.861 97.7877L460.427 57.9643L456.734 56.428L440.168 96.2514L443.861 97.7877ZM458.341 59.1818L467.713 60.3117L468.192 56.3405L458.82 55.2105L458.341 59.1818ZM465.977 58.6369L472.682 101.266L476.634 100.644L469.928 58.0153L465.977 58.6369ZM476.521 101.683L492.134 61.745L488.408 60.2887L472.795 100.227L476.521 101.683ZM490.031 63.0025L501.548 64.391L502.027 60.4197L490.51 59.0312L490.031 63.0025ZM499.94 61.6394L477.67 115.36L481.365 116.892L503.635 63.1713L499.94 61.6394ZM479.757 114.14L467.287 112.637L466.808 116.608L479.278 118.112L479.757 114.14ZM469.022 114.307L462.962 76.3489L459.012 76.9795L465.072 114.938L469.022 114.307ZM459.142 75.8922L444.314 111.332L448.004 112.876L462.832 77.4362L459.142 75.8922ZM446.398 110.118L433.928 108.615L433.45 112.586L445.919 114.09L446.398 110.118ZM560.167 69.4438L560.406 67.4582L558.42 67.2188L558.181 69.2044L560.167 69.4438ZM571.127 70.7652L573.113 71.0046L573.352 69.019L571.367 68.7796L571.127 70.7652ZM564.424 126.363L564.185 128.348L566.17 128.588L566.41 126.602L564.424 126.363ZM556.085 125.357L554.321 126.301L554.812 127.218L555.845 127.343L556.085 125.357ZM536.356 88.4906L538.119 87.5469L535.129 81.959L534.37 88.2512L536.356 88.4906ZM532.257 122.484L532.018 124.47L534.003 124.709L534.243 122.724L532.257 122.484ZM521.297 121.163L519.311 120.924L519.071 122.909L521.057 123.149L521.297 121.163ZM528 65.5656L528.239 63.58L526.253 63.3406L526.014 65.3262L528 65.5656ZM536.339 66.571L538.102 65.6254L537.61 64.7098L536.579 64.5854L536.339 66.571ZM556.078 103.358L554.315 104.304L557.306 109.878L558.063 103.598L556.078 103.358ZM559.927 71.4294L570.888 72.7509L571.367 68.7796L560.406 67.4582L559.927 71.4294ZM569.142 70.5258L562.439 126.123L566.41 126.602L573.113 71.0046L569.142 70.5258ZM564.664 124.377L556.324 123.372L555.845 127.343L564.185 128.348L564.664 124.377ZM557.848 124.414L538.119 87.5469L534.592 89.4343L554.321 126.301L557.848 124.414ZM534.37 88.2512L530.271 122.245L534.243 122.724L538.341 88.73L534.37 88.2512ZM532.497 120.499L521.536 119.177L521.057 123.149L532.018 124.47L532.497 120.499ZM523.282 121.402L529.985 65.805L526.014 65.3262L519.311 120.924L523.282 121.402ZM527.76 67.5512L536.1 68.5567L536.579 64.5854L528.239 63.58L527.76 67.5512ZM534.577 67.5166L554.315 104.304L557.84 102.413L538.102 65.6254L534.577 67.5166ZM558.063 103.598L562.152 69.6832L558.181 69.2044L554.092 103.119L558.063 103.598ZM610.479 131.915L608.519 132.316L608.808 133.728L610.239 133.901L610.479 131.915ZM608.35 121.505L610.309 121.105L610.02 119.692L608.589 119.52L608.35 121.505ZM586.19 118.834L586.429 116.848L584.998 116.676L584.382 117.979L586.19 118.834ZM581.648 128.439L581.408 130.425L582.839 130.597L583.456 129.294L581.648 128.439ZM569.813 127.012L568.018 126.13L566.775 128.661L569.574 128.998L569.813 127.012ZM595.975 73.761L596.215 71.7754L594.806 71.6056L594.18 72.8791L595.975 73.761ZM609.557 75.3985L611.51 74.966L611.203 73.5825L609.796 73.4129L609.557 75.3985ZM622.393 133.352L622.153 135.337L624.956 135.675L624.345 132.919L622.393 133.352ZM590.92 109.009L589.114 108.151L587.92 110.662L590.681 110.995L590.92 109.009ZM606.17 110.848L605.93 112.834L608.691 113.166L608.128 110.443L606.17 110.848ZM601.283 87.2131L603.242 86.8082L602.036 80.9733L599.477 86.3543L601.283 87.2131ZM612.438 131.514L610.309 121.105L606.39 121.906L608.519 132.316L612.438 131.514ZM608.589 119.52L586.429 116.848L585.951 120.819L608.11 123.491L608.589 119.52ZM584.382 117.979L579.84 127.584L583.456 129.294L587.998 119.689L584.382 117.979ZM581.887 126.454L570.053 125.027L569.574 128.998L581.408 130.425L581.887 126.454ZM571.608 127.894L597.77 74.6429L594.18 72.8791L568.018 126.13L571.608 127.894ZM595.736 75.7467L609.318 77.3841L609.796 73.4129L596.215 71.7754L595.736 75.7467ZM607.604 75.831L620.44 133.784L624.345 132.919L611.51 74.966L607.604 75.831ZM622.632 131.366L610.718 129.93L610.239 133.901L622.153 135.337L622.632 131.366ZM590.681 110.995L605.93 112.834L606.409 108.862L591.159 107.024L590.681 110.995ZM608.128 110.443L603.242 86.8082L599.325 87.618L604.211 111.253L608.128 110.443ZM599.477 86.3543L589.114 108.151L592.726 109.868L603.09 88.0719L599.477 86.3543ZM631.94 131.924L630.644 133.448L630.651 133.454L630.659 133.46L631.94 131.924ZM625.213 120.879L624.418 119.045L622.889 119.708L623.265 121.331L625.213 120.879ZM635.246 116.529L637.186 116.042L636.612 113.757L634.45 114.694L635.246 116.529ZM653.961 125.715L652.931 124.001L653.961 125.715ZM654.538 116.921L653.27 118.468L653.287 118.482L653.304 118.495L654.538 116.921ZM645.597 112.217L644.8 114.052L644.813 114.057L644.827 114.063L645.597 112.217ZM639.511 109.227L638.496 110.95L638.505 110.956L638.515 110.962L639.511 109.227ZM634.702 105.666L633.319 107.111L633.345 107.135L633.371 107.158L634.702 105.666ZM631.385 100.431L629.487 101.063L631.385 100.431ZM637.607 82.2452L638.696 83.9222L638.699 83.9207L637.607 82.2452ZM662.531 84.0415L661.241 85.5702L661.255 85.5818L661.269 85.5932L662.531 84.0415ZM669.452 94.1425L670.237 95.9816L671.95 95.2497L671.342 93.4891L669.452 94.1425ZM659.597 98.3531L657.696 98.9759L658.376 101.05L660.383 100.192L659.597 98.3531ZM644.223 90.8591L645.268 92.5645L645.277 92.5591L644.223 90.8591ZM643.466 99.148L642.058 100.568L642.087 100.597L642.117 100.625L643.466 99.148ZM651.463 103.658L652.284 101.834L652.276 101.83L651.463 103.658ZM655.122 105.388L654.201 107.163L654.266 107.197L654.333 107.226L655.122 105.388ZM658.534 107.169L657.532 108.9L657.568 108.921L657.606 108.941L658.534 107.169ZM661.827 109.259L660.527 110.778L660.549 110.797L660.572 110.815L661.827 109.259ZM664.428 111.748L665.897 110.39L665.897 110.39L664.428 111.748ZM666.476 114.815L664.624 115.57L664.639 115.608L664.657 115.646L666.476 114.815ZM667.484 118.482L665.504 118.767L665.511 118.813L665.52 118.859L667.484 118.482ZM660.479 134.478L659.423 132.78L659.411 132.788L660.479 134.478ZM645.638 135.268C640.426 134.639 636.328 132.978 633.22 130.388L630.659 133.46C634.483 136.648 639.357 138.539 645.159 139.239L645.638 135.268ZM633.235 130.4C630.103 127.736 628.089 124.431 627.161 120.428L623.265 121.331C624.387 126.171 626.858 130.228 630.644 133.448L633.235 130.4ZM626.009 122.714L636.042 118.364L634.45 114.694L624.418 119.045L626.009 122.714ZM633.306 117.016C634.132 120.306 635.672 123.016 638.004 125.006C640.329 126.991 643.296 128.136 646.769 128.555L647.248 124.584C644.367 124.236 642.197 123.325 640.601 121.963C639.012 120.607 637.848 118.68 637.186 116.042L633.306 117.016ZM646.769 128.555C650.003 128.945 652.86 128.71 654.991 127.43L652.931 124.001C651.934 124.6 650.156 124.934 647.248 124.584L646.769 128.555ZM654.991 127.43C657.042 126.197 658.315 124.358 658.599 122.004L654.627 121.525C654.503 122.559 654.008 123.354 652.931 124.001L654.991 127.43ZM658.599 122.004C658.923 119.315 657.913 117.026 655.772 115.347L653.304 118.495C654.402 119.356 654.776 120.296 654.627 121.525L658.599 122.004ZM655.806 115.374C653.947 113.85 650.726 112.19 646.367 110.371L644.827 114.063C649.162 115.871 651.902 117.347 653.27 118.468L655.806 115.374ZM646.393 110.382C644.039 109.361 642.081 108.397 640.507 107.493L638.515 110.962C640.256 111.961 642.356 112.991 644.8 114.052L646.393 110.382ZM640.526 107.504C639.049 106.634 637.551 105.528 636.034 104.174L633.371 107.158C635.055 108.661 636.762 109.929 638.496 110.95L640.526 107.504ZM636.085 104.221C634.778 102.97 633.85 101.504 633.283 99.7998L629.487 101.063C630.261 103.388 631.544 105.412 633.319 107.111L636.085 104.221ZM633.283 99.7998C632.723 98.117 632.547 96.1439 632.825 93.8361L628.854 93.3574C628.519 96.1328 628.707 98.716 629.487 101.063L633.283 99.7998ZM632.825 93.8361C633.368 89.3354 635.336 86.106 638.696 83.9222L636.517 80.5681C632.067 83.4594 629.524 87.7976 628.854 93.3574L632.825 93.8361ZM638.699 83.9207C642.241 81.6121 646.26 80.7099 650.859 81.2644L651.338 77.2932C645.877 76.6348 640.902 77.7102 636.515 80.5697L638.699 83.9207ZM650.859 81.2644C655.017 81.7657 658.451 83.2164 661.241 85.5702L663.82 82.5127C660.369 79.6015 656.182 77.8772 651.338 77.2932L650.859 81.2644ZM661.269 85.5932C664.139 87.9272 666.24 90.9739 667.561 94.7958L671.342 93.4891C669.795 89.0148 667.282 85.3275 663.793 82.4897L661.269 85.5932ZM668.666 92.3033L658.811 96.514L660.383 100.192L670.237 95.9816L668.666 92.3033ZM661.497 97.7304C660.585 94.9471 659.183 92.6474 657.22 90.9552C655.249 89.2556 652.828 88.2705 650.055 87.9361L649.576 91.9074C651.674 92.1603 653.32 92.8741 654.609 93.9849C655.906 95.1032 656.959 96.7255 657.696 98.9759L661.497 97.7304ZM650.055 87.9361C647.482 87.6259 645.121 87.9496 643.17 89.159L645.277 92.5591C646.228 91.9697 647.596 91.6686 649.576 91.9074L650.055 87.9361ZM643.178 89.1537C641.258 90.3305 640.123 92.1219 639.853 94.3611L643.824 94.8399C643.95 93.7962 644.405 93.0934 645.268 92.5645L643.178 89.1537ZM639.853 94.3611C639.565 96.7468 640.342 98.8681 642.058 100.568L644.874 97.7276C643.998 96.8593 643.69 95.9489 643.824 94.8399L639.853 94.3611ZM642.117 100.625C643.735 102.103 646.673 103.716 650.651 105.485L652.276 101.83C648.3 100.062 645.906 98.6685 644.815 97.6714L642.117 100.625ZM650.643 105.482C652.265 106.212 653.443 106.77 654.201 107.163L656.044 103.613C655.184 103.167 653.923 102.571 652.284 101.834L650.643 105.482ZM654.333 107.226C655.094 107.553 656.153 108.102 657.532 108.9L659.536 105.439C658.103 104.609 656.887 103.97 655.912 103.551L654.333 107.226ZM657.606 108.941C659.018 109.681 659.964 110.296 660.527 110.778L663.128 107.739C662.23 106.971 660.98 106.193 659.462 105.398L657.606 108.941ZM660.572 110.815C661.257 111.368 662.052 112.124 662.96 113.106L665.897 110.39C664.903 109.316 663.965 108.413 663.083 107.702L660.572 110.815ZM662.96 113.106C663.79 114.003 664.321 114.827 664.624 115.57L668.328 114.06C667.801 112.769 666.967 111.548 665.897 110.39L662.96 113.106ZM664.657 115.646C665.027 116.456 665.32 117.485 665.504 118.767L669.464 118.197C669.239 116.636 668.86 115.221 668.295 113.984L664.657 115.646ZM665.52 118.859C665.74 120.004 665.777 121.276 665.607 122.688L669.578 123.166C669.791 121.401 669.756 119.709 669.448 118.105L665.52 118.859ZM665.607 122.688C665.055 127.267 662.993 130.559 659.423 132.78L661.535 136.177C666.211 133.268 668.892 128.859 669.578 123.166L665.607 122.688ZM659.411 132.788C655.819 135.056 651.282 135.948 645.638 135.268L645.159 139.239C651.481 140.001 656.998 139.043 661.547 136.169L659.411 132.788ZM714.315 88.0286L716.301 88.268L716.54 86.2823L714.555 86.0429L714.315 88.0286ZM713.051 98.5126L712.812 100.498L714.798 100.738L715.037 98.752L713.051 98.5126ZM698.04 96.7028L698.279 94.7172L696.294 94.4778L696.054 96.4634L698.04 96.7028ZM692.601 141.816L692.362 143.802L694.347 144.041L694.587 142.056L692.601 141.816ZM681.64 140.495L679.655 140.255L679.415 142.241L681.401 142.48L681.64 140.495ZM687.079 95.3814L689.065 95.6208L689.304 93.6351L687.319 93.3957L687.079 95.3814ZM672.148 93.5811L670.162 93.3417L669.922 95.3273L671.908 95.5667L672.148 93.5811ZM673.412 83.097L673.651 81.1114L671.665 80.872L671.426 82.8576L673.412 83.097ZM712.33 87.7892L711.066 98.2733L715.037 98.752L716.301 88.268L712.33 87.7892ZM713.291 96.527L698.279 94.7172L697.801 98.6884L712.812 100.498L713.291 96.527ZM696.054 96.4634L690.615 141.577L694.587 142.056L700.026 96.9422L696.054 96.4634ZM692.84 139.831L681.88 138.509L681.401 142.48L692.362 143.802L692.84 139.831ZM683.626 140.734L689.065 95.6208L685.094 95.142L679.655 140.255L683.626 140.734ZM687.319 93.3957L672.387 91.5955L671.908 95.5667L686.84 97.367L687.319 93.3957ZM674.133 93.8205L675.397 83.3364L671.426 82.8576L670.162 93.3417L674.133 93.8205ZM673.172 85.0827L714.076 90.0142L714.555 86.0429L673.651 81.1114L673.172 85.0827ZM725.956 135.201L723.97 134.962L723.731 136.947L725.716 137.187L725.956 135.201ZM749.386 138.026L751.372 138.265L751.611 136.28L749.625 136.04L749.386 138.026ZM748.122 148.51L747.883 150.496L749.868 150.735L750.108 148.749L748.122 148.51ZM748.043 148.5L748.282 146.515L747.427 146.412L746.764 146.962L748.043 148.5ZM743.003 155.548L744.965 155.933L744.98 155.861L744.988 155.787L743.003 155.548ZM744.73 157.932L745.148 155.976L745.059 155.957L744.969 155.946L744.73 157.932ZM746.922 157.793L748.908 158.033L749.253 155.167L746.449 155.85L746.922 157.793ZM746.147 164.227L746.697 166.149L747.973 165.784L748.132 164.466L746.147 164.227ZM734.3 162.234L735.77 160.878L735.765 160.873L734.3 162.234ZM739.306 147.447L740.575 148.993L744.192 146.022L739.545 145.461L739.306 147.447ZM713.731 144.364L711.745 144.124L711.506 146.11L713.492 146.349L713.731 144.364ZM720.434 88.7663L720.674 86.7807L718.688 86.5413L718.449 88.5269L720.434 88.7663ZM754.428 92.8647L756.414 93.1041L756.653 91.1185L754.667 90.8791L754.428 92.8647ZM753.164 103.349L752.925 105.334L754.91 105.574L755.15 103.588L753.164 103.349ZM730.131 100.572L730.37 98.5862L728.385 98.3468L728.145 100.332L730.131 100.572ZM728.704 112.406L726.718 112.167L726.479 114.152L728.465 114.392L728.704 112.406ZM749.752 114.944L751.737 115.183L751.977 113.197L749.991 112.958L749.752 114.944ZM748.507 125.269L748.267 127.255L750.253 127.494L750.492 125.508L748.507 125.269ZM727.459 122.731L727.698 120.746L725.713 120.506L725.473 122.492L727.459 122.731ZM725.716 137.187L749.147 140.012L749.625 136.04L726.195 133.215L725.716 137.187ZM747.4 137.787L746.136 148.271L750.108 148.749L751.372 138.265L747.4 137.787ZM748.361 146.524L748.282 146.515L747.803 150.486L747.883 150.496L748.361 146.524ZM746.764 146.962C743.577 149.611 741.369 152.389 741.017 155.308L744.988 155.787C745.147 154.47 746.299 152.55 749.321 150.039L746.764 146.962ZM741.04 155.162C740.845 156.157 740.865 157.357 741.606 158.38C742.349 159.404 743.483 159.796 744.49 159.917L744.969 155.946C744.921 155.94 744.879 155.934 744.843 155.927C744.807 155.92 744.778 155.913 744.755 155.907C744.731 155.901 744.714 155.895 744.703 155.891C744.691 155.887 744.686 155.884 744.686 155.884C744.687 155.885 744.708 155.895 744.74 155.921C744.756 155.934 744.774 155.95 744.792 155.969C744.811 155.988 744.829 156.01 744.846 156.033C744.862 156.056 744.877 156.08 744.89 156.103C744.902 156.126 744.912 156.148 744.919 156.167C744.933 156.205 744.936 156.228 744.936 156.227C744.936 156.226 744.933 156.203 744.936 156.153C744.937 156.128 744.94 156.097 744.944 156.06C744.949 156.024 744.956 155.981 744.965 155.933L741.04 155.162ZM744.312 159.887C745.299 160.099 746.362 159.988 747.395 159.736L746.449 155.85C745.712 156.029 745.313 156.011 745.148 155.976L744.312 159.887ZM744.937 157.554L744.161 163.987L748.132 164.466L748.908 158.033L744.937 157.554ZM745.597 162.304C743.744 162.834 741.843 162.982 739.879 162.746L739.4 166.717C741.883 167.016 744.321 166.829 746.697 166.149L745.597 162.304ZM739.879 162.746C737.969 162.515 736.665 161.849 735.77 160.878L732.83 163.59C734.5 165.4 736.756 166.398 739.4 166.717L739.879 162.746ZM735.765 160.873C735.031 160.082 734.619 158.921 734.843 157.062L730.872 156.583C730.547 159.278 731.097 161.724 732.835 163.595L735.765 160.873ZM734.843 157.062C735.115 154.806 736.786 152.105 740.575 148.993L738.036 145.902C733.955 149.254 731.327 152.802 730.872 156.583L734.843 157.062ZM739.545 145.461L713.97 142.378L713.492 146.349L739.067 149.433L739.545 145.461ZM715.717 144.603L722.42 89.0057L718.449 88.5269L711.745 144.124L715.717 144.603ZM720.195 90.7519L754.189 94.8503L754.667 90.8791L720.674 86.7807L720.195 90.7519ZM752.442 92.6253L751.178 103.109L755.15 103.588L756.414 93.1041L752.442 92.6253ZM753.403 101.363L730.37 98.5862L729.891 102.557L752.925 105.334L753.403 101.363ZM728.145 100.332L726.718 112.167L730.69 112.646L732.116 100.811L728.145 100.332ZM728.465 114.392L749.512 116.929L749.991 112.958L728.943 110.42L728.465 114.392ZM747.766 114.704L746.521 125.03L750.492 125.508L751.737 115.183L747.766 114.704ZM748.746 123.283L727.698 120.746L727.22 124.717L748.267 127.255L748.746 123.283ZM725.473 122.492L723.97 134.962L727.941 135.44L729.445 122.971L725.473 122.492ZM796.132 103.372L797.696 102.126L796.132 103.372ZM792.934 129.9L794.157 131.482L792.934 129.9ZM769.011 132.495L769.25 130.51L767.265 130.27L767.025 132.256L769.011 132.495ZM766.809 150.763L766.569 152.749L768.555 152.988L768.794 151.002L766.809 150.763ZM755.848 149.441L753.862 149.202L753.623 151.188L755.609 151.427L755.848 149.441ZM762.551 93.8441L762.79 91.8584L760.805 91.619L760.565 93.6047L762.551 93.8441ZM786.101 121.743L787.362 123.296L787.375 123.285L787.387 123.275L786.101 121.743ZM787.556 109.671L785.962 110.879L785.962 110.879L787.556 109.671ZM772.276 105.411L772.516 103.426L770.53 103.186L770.291 105.172L772.276 105.411ZM770.246 122.249L768.261 122.01L768.021 123.996L770.007 124.235L770.246 122.249ZM783.042 98.329C787.893 98.9138 791.691 101.007 794.568 104.618L797.696 102.126C794.134 97.6548 789.365 95.0624 783.52 94.3577L783.042 98.329ZM794.568 104.618C797.445 108.23 798.597 112.334 798.028 117.057L801.999 117.536C802.693 111.776 801.257 106.596 797.696 102.126L794.568 104.618ZM798.028 117.057C797.458 121.781 795.364 125.493 791.71 128.318L794.157 131.482C798.679 127.987 801.304 123.297 801.999 117.536L798.028 117.057ZM791.71 128.318C788.058 131.142 783.871 132.272 779.02 131.687L778.541 135.659C784.386 136.363 789.634 134.979 794.157 131.482L791.71 128.318ZM779.02 131.687L769.25 130.51L768.772 134.481L778.541 135.659L779.02 131.687ZM767.025 132.256L764.823 150.524L768.794 151.002L770.997 132.735L767.025 132.256ZM767.048 148.777L756.087 147.456L755.609 151.427L766.569 152.749L767.048 148.777ZM757.834 149.681L764.537 94.0835L760.565 93.6047L753.862 149.202L757.834 149.681ZM762.312 95.8297L783.042 98.329L783.52 94.3577L762.79 91.8584L762.312 95.8297ZM779.776 125.413C782.611 125.755 785.189 125.061 787.362 123.296L784.84 120.191C783.558 121.232 782.079 121.662 780.255 121.442L779.776 125.413ZM787.387 123.275C789.534 121.471 790.774 119.078 791.118 116.224L787.146 115.746C786.916 117.658 786.134 119.103 784.814 120.212L787.387 123.275ZM791.118 116.224C791.466 113.331 790.841 110.694 789.15 108.463L785.962 110.879C786.96 112.195 787.385 113.767 787.146 115.746L791.118 116.224ZM789.15 108.463C787.459 106.232 785.12 104.945 782.285 104.604L781.806 108.575C783.631 108.795 784.965 109.563 785.962 110.879L789.15 108.463ZM782.285 104.604L772.516 103.426L772.037 107.397L781.806 108.575L782.285 104.604ZM770.291 105.172L768.261 122.01L772.232 122.489L774.262 105.651L770.291 105.172ZM770.007 124.235L779.776 125.413L780.255 121.442L770.486 120.264L770.007 124.235ZM808.674 151.62L807.183 152.953L808.674 151.62ZM808.923 99.4348L809.162 97.4492L807.176 97.2098L806.937 99.1954L808.923 99.4348ZM819.804 100.747L821.79 100.986L822.029 99.0005L820.043 98.7611L819.804 100.747ZM817.028 144.489L815.435 145.699L815.445 145.711L815.455 145.724L817.028 144.489ZM832.675 146.375L831.44 144.802L831.428 144.812L831.415 144.822L832.675 146.375ZM840.454 103.236L840.694 101.251L838.708 101.011L838.469 102.997L840.454 103.236ZM851.415 104.558L853.401 104.797L853.64 102.812L851.654 102.572L851.415 104.558ZM839.253 155.307L840.385 156.956L840.385 156.956L839.253 155.307ZM823.531 156.715C817.732 156.016 813.338 153.838 810.166 150.288L807.183 152.953C811.111 157.35 816.462 159.892 823.053 160.687L823.531 156.715ZM810.166 150.288C807.044 146.793 805.75 142.461 806.398 137.083L802.427 136.605C801.658 142.982 803.205 148.5 807.183 152.953L810.166 150.288ZM806.398 137.083L810.908 99.6742L806.937 99.1954L802.427 136.605L806.398 137.083ZM808.683 101.42L819.565 102.732L820.043 98.7611L809.162 97.4492L808.683 101.42ZM817.818 100.507L813.413 137.043L817.385 137.522L821.79 100.986L817.818 100.507ZM813.413 137.043C813.016 140.343 813.614 143.3 815.435 145.699L818.621 143.279C817.568 141.893 817.08 140.046 817.385 137.522L813.413 137.043ZM815.455 145.724C817.401 148.204 820.522 149.503 824.345 149.964L824.824 145.993C821.552 145.598 819.635 144.572 818.601 143.254L815.455 145.724ZM824.345 149.964C828.162 150.424 831.496 149.906 833.934 147.929L831.415 144.822C830.162 145.838 828.103 146.388 824.824 145.993L824.345 149.964ZM833.91 147.949C836.312 146.063 837.635 143.329 838.035 140.011L834.064 139.532C833.762 142.039 832.835 143.708 831.44 144.802L833.91 147.949ZM838.035 140.011L842.44 103.476L838.469 102.997L834.064 139.532L838.035 140.011ZM840.215 105.222L851.176 106.543L851.654 102.572L840.694 101.251L840.215 105.222ZM849.429 104.318L844.919 141.728L848.89 142.206L853.401 104.797L849.429 104.318ZM844.919 141.728C844.271 147.105 841.984 151.006 838.121 153.658L840.385 156.956C845.307 153.576 848.122 148.584 848.89 142.206L844.919 141.728ZM838.121 153.658C834.2 156.35 829.389 157.421 823.531 156.715L823.053 160.687C829.691 161.487 835.521 160.295 840.385 156.956L838.121 153.658ZM849.539 151.148L848.761 149.305L847.023 150.039L847.653 151.816L849.539 151.148ZM859.641 146.887L861.524 146.213L860.812 144.222L858.864 145.044L859.641 146.887ZM874.667 151.922L875.871 153.518L874.667 151.922ZM882.107 108.258L882.346 106.273L880.36 106.033L880.121 108.019L882.107 108.258ZM892.988 109.57L894.973 109.809L895.213 107.824L893.227 107.584L892.988 109.57ZM881.254 160.774L880.119 159.128L881.254 160.774ZM866.851 161.938C862.749 161.443 859.495 160.213 856.989 158.339C854.495 156.472 852.63 153.884 851.424 150.48L847.653 151.816C849.092 155.876 851.396 159.149 854.593 161.541C857.778 163.925 861.739 165.351 866.373 165.909L866.851 161.938ZM850.316 152.991L860.419 148.73L858.864 145.044L848.761 149.305L850.316 152.991ZM857.758 147.561C858.533 149.726 859.763 151.516 861.487 152.834C863.204 154.145 865.296 154.901 867.665 155.187L868.144 151.216C866.331 150.997 864.954 150.449 863.916 149.655C862.885 148.868 862.075 147.753 861.524 146.213L857.758 147.561ZM867.665 155.187C870.853 155.571 873.705 155.153 875.871 153.518L873.462 150.325C872.437 151.098 870.781 151.534 868.144 151.216L867.665 155.187ZM875.871 153.518C877.986 151.922 879.138 149.586 879.477 146.78L875.505 146.302C875.269 148.261 874.538 149.513 873.462 150.325L875.871 153.518ZM879.477 146.78L884.092 108.498L880.121 108.019L875.505 146.302L879.477 146.78ZM881.867 110.244L892.748 111.556L893.227 107.584L882.346 106.273L881.867 110.244ZM891.002 109.331L886.387 147.613L890.358 148.092L894.973 109.809L891.002 109.331ZM886.387 147.613C885.738 152.99 883.598 156.727 880.119 159.128L882.39 162.42C886.997 159.242 889.602 154.365 890.358 148.092L886.387 147.613ZM880.119 159.128C876.545 161.593 872.174 162.58 866.851 161.938L866.373 165.909C872.487 166.647 877.878 165.533 882.39 162.42L880.119 159.128ZM938.872 181.338L939.275 179.379L939.194 179.363L939.111 179.353L938.872 181.338ZM941.143 181.209L943.129 181.449L943.474 178.583L940.67 179.266L941.143 181.209ZM940.368 187.643L940.918 189.566L942.194 189.2L942.353 187.882L940.368 187.643ZM928.521 185.65L929.991 184.294L929.986 184.289L928.521 185.65ZM933.527 170.863L934.796 172.409L938.413 169.438L933.766 168.878L933.527 170.863ZM930.35 170.48L928.39 170.881L928.679 172.293L930.111 172.466L930.35 170.48ZM928.221 160.07L930.18 159.67L929.891 158.257L928.46 158.085L928.221 160.07ZM906.061 157.399L906.301 155.413L904.869 155.241L904.253 156.544L906.061 157.399ZM901.519 167.004L901.279 168.99L902.71 169.162L903.327 167.859L901.519 167.004ZM889.684 165.577L887.889 164.695L886.646 167.226L889.445 167.563L889.684 165.577ZM915.847 112.326L916.086 110.34L914.677 110.171L914.051 111.444L915.847 112.326ZM929.428 113.963L931.381 113.531L931.074 112.147L929.668 111.978L929.428 113.963ZM942.264 171.916L943.541 173.455L944.48 172.676L944.216 171.484L942.264 171.916ZM910.791 147.574L908.985 146.715L907.791 149.227L910.552 149.56L910.791 147.574ZM926.041 149.413L925.801 151.398L928.562 151.731L927.999 149.008L926.041 149.413ZM921.155 125.778L923.113 125.373L921.907 119.538L919.348 124.919L921.155 125.778ZM938.468 183.297C939.482 183.506 940.556 183.411 941.616 183.152L940.67 179.266C939.96 179.439 939.519 179.43 939.275 179.379L938.468 183.297ZM939.158 180.97L938.382 187.403L942.353 187.882L943.129 181.449L939.158 180.97ZM939.818 185.72C937.971 186.248 936.044 186.396 934.02 186.152L933.542 190.123C936.072 190.428 938.536 190.247 940.918 189.566L939.818 185.72ZM934.02 186.152C932.177 185.93 930.894 185.273 929.991 184.294L927.051 187.007C928.714 188.808 930.937 189.809 933.542 190.123L934.02 186.152ZM929.986 184.289C929.252 183.498 928.84 182.337 929.064 180.478L925.093 179.999C924.768 182.694 925.318 185.14 927.056 187.011L929.986 184.289ZM929.064 180.478C929.336 178.222 931.007 175.521 934.796 172.409L932.257 169.318C928.176 172.67 925.549 176.219 925.093 179.999L929.064 180.478ZM933.766 168.878L930.589 168.494L930.111 172.466L933.288 172.849L933.766 168.878ZM932.309 170.079L930.18 159.67L926.261 160.471L928.39 170.881L932.309 170.079ZM928.46 158.085L906.301 155.413L905.822 159.384L927.981 162.056L928.46 158.085ZM904.253 156.544L899.711 166.149L903.327 167.859L907.869 158.254L904.253 156.544ZM901.758 165.018L889.924 163.592L889.445 167.563L901.279 168.99L901.758 165.018ZM891.479 166.459L917.642 113.208L914.051 111.444L887.889 164.695L891.479 166.459ZM915.607 114.312L929.189 115.949L929.668 111.978L916.086 110.34L915.607 114.312ZM927.475 114.396L940.311 172.349L944.216 171.484L931.381 113.531L927.475 114.396ZM940.986 170.378C937.762 173.055 935.506 175.833 935.159 178.715L939.13 179.194C939.281 177.945 940.438 176.032 943.541 173.455L940.986 170.378ZM935.159 178.715C935.04 179.699 935.131 180.835 935.827 181.796C936.547 182.789 937.623 183.202 938.632 183.324L939.111 179.353C938.953 179.334 938.903 179.305 938.917 179.312C938.925 179.317 938.948 179.329 938.979 179.355C939.009 179.38 939.04 179.412 939.067 179.449C939.093 179.486 939.109 179.518 939.118 179.54C939.127 179.561 939.126 179.566 939.123 179.551C939.117 179.515 939.105 179.404 939.13 179.194L935.159 178.715ZM910.552 149.56L925.801 151.398L926.28 147.427L911.03 145.589L910.552 149.56ZM927.999 149.008L923.113 125.373L919.196 126.183L924.082 149.818L927.999 149.008ZM919.348 124.919L908.985 146.715L912.597 148.433L922.961 126.637L919.348 124.919ZM952.156 165.776L953.741 164.557L952.156 165.776ZM957.116 124.634L958.359 126.202L958.366 126.196L957.116 124.634ZM992.32 124.044L991.138 125.657L991.15 125.666L991.162 125.674L992.32 124.044ZM1001.18 134.781L1001.97 136.619L1003.82 135.823L1003.01 133.976L1001.18 134.781ZM991.066 139.122L989.213 139.874L989.98 141.765L991.855 140.96L991.066 139.122ZM985.888 132.616L984.706 134.229L984.719 134.238L984.732 134.248L985.888 132.616ZM963.85 132.94L962.603 131.377L962.597 131.382L962.591 131.387L963.85 132.94ZM960.681 159.23L959.088 160.439L959.093 160.446L959.098 160.452L960.681 159.23ZM982 164.862L982.735 166.722L982.742 166.719L982.749 166.717L982 164.862ZM988.576 159.773L989.78 158.175L988.137 156.938L986.946 158.614L988.576 159.773ZM997.367 166.393L998.954 167.61L1000.18 166.009L998.57 164.795L997.367 166.393ZM986.281 174.806L987.028 176.661L987.036 176.658L987.045 176.654L986.281 174.806ZM972.12 174.63C964.243 173.68 958.171 170.315 953.741 164.557L950.571 166.996C955.708 173.673 962.786 177.533 971.641 178.601L972.12 174.63ZM953.741 164.557C949.293 158.776 947.517 152.12 948.441 144.458L944.47 143.98C943.427 152.627 945.452 160.342 950.571 166.996L953.741 164.557ZM948.441 144.458C949.371 136.74 952.68 130.703 958.359 126.202L955.874 123.067C949.317 128.264 945.518 135.283 944.47 143.98L948.441 144.458ZM958.366 126.196C964.038 121.656 970.735 119.83 978.612 120.78L979.091 116.808C970.236 115.741 962.443 117.808 955.866 123.073L958.366 126.196ZM978.612 120.78C983.314 121.346 987.476 122.974 991.138 125.657L993.502 122.431C989.266 119.327 984.45 117.454 979.091 116.808L978.612 120.78ZM991.162 125.674C994.889 128.322 997.602 131.621 999.348 135.587L1003.01 133.976C1000.96 129.319 997.767 125.46 993.478 122.413L991.162 125.674ZM1000.39 132.944L990.277 137.284L991.855 140.96L1001.97 136.619L1000.39 132.944ZM992.92 138.371C991.697 135.356 989.726 132.884 987.044 130.984L984.732 134.248C986.801 135.714 988.282 137.579 989.213 139.874L992.92 138.371ZM987.07 131.002C984.399 129.045 981.294 127.872 977.808 127.451L977.329 131.423C980.196 131.768 982.638 132.714 984.706 134.229L987.07 131.002ZM977.808 127.451C971.954 126.746 966.825 128.009 962.603 131.377L965.098 134.504C968.365 131.898 972.381 130.826 977.329 131.423L977.808 127.451ZM962.591 131.387C958.437 134.755 956.054 139.456 955.351 145.292L959.322 145.77C959.921 140.805 961.881 137.112 965.11 134.494L962.591 131.387ZM955.351 145.292C954.653 151.081 955.857 156.185 959.088 160.439L962.274 158.02C959.756 154.705 958.731 150.677 959.322 145.77L955.351 145.292ZM959.098 160.452C962.398 164.726 967.08 167.173 972.934 167.879L973.413 163.907C968.465 163.311 964.818 161.315 962.264 158.007L959.098 160.452ZM972.934 167.879C976.408 168.297 979.688 167.926 982.735 166.722L981.265 163.002C978.896 163.938 976.293 164.255 973.413 163.907L972.934 167.879ZM982.749 166.717C985.844 165.467 988.353 163.54 990.207 160.931L986.946 158.614C985.565 160.557 983.689 162.023 981.251 163.007L982.749 166.717ZM987.373 161.37L996.164 167.99L998.57 164.795L989.78 158.175L987.373 161.37ZM995.781 165.175C993.135 168.622 989.728 171.215 985.516 172.958L987.045 176.654C991.88 174.653 995.864 171.637 998.954 167.61L995.781 165.175ZM985.533 172.951C981.345 174.637 976.886 175.204 972.12 174.63L971.641 178.601C977.041 179.252 982.182 178.613 987.028 176.661L985.533 172.951ZM1052.12 128.755L1053.73 129.937L1055.75 127.179L1052.36 126.77L1052.12 128.755ZM1028.97 160.372L1027.35 159.19L1027.04 159.612L1026.98 160.132L1028.97 160.372ZM1026.35 182.055L1026.11 184.04L1028.1 184.28L1028.34 182.294L1026.35 182.055ZM1015.47 180.743L1013.49 180.503L1013.25 182.489L1015.23 182.728L1015.47 180.743ZM1018.09 159.06L1020.07 159.299L1020.13 158.781L1019.94 158.299L1018.09 159.06ZM1003.19 122.857L1003.43 120.871L1000.04 120.463L1001.34 123.618L1003.19 122.857ZM1015.58 124.351L1017.45 123.646L1017.03 122.51L1015.82 122.365L1015.58 124.351ZM1024.86 148.998L1022.99 149.703L1024.34 153.298L1026.51 150.127L1024.86 148.998ZM1039.73 127.262L1039.97 125.276L1038.76 125.131L1038.08 126.132L1039.73 127.262ZM1050.5 127.574L1027.35 159.19L1030.58 161.553L1053.73 129.937L1050.5 127.574ZM1026.98 160.132L1024.37 181.815L1028.34 182.294L1030.95 160.611L1026.98 160.132ZM1026.59 180.069L1015.71 178.757L1015.23 182.728L1026.11 184.04L1026.59 180.069ZM1017.46 180.982L1020.07 159.299L1016.1 158.82L1013.49 180.503L1017.46 180.982ZM1019.94 158.299L1005.04 122.096L1001.34 123.618L1016.24 159.821L1019.94 158.299ZM1002.95 124.842L1015.34 126.336L1015.82 122.365L1003.43 120.871L1002.95 124.842ZM1013.71 125.055L1022.99 149.703L1026.73 148.294L1017.45 123.646L1013.71 125.055ZM1026.51 150.127L1041.38 128.391L1038.08 126.132L1023.21 147.869L1026.51 150.127ZM1039.49 129.247L1051.88 130.741L1052.36 126.77L1039.97 125.276L1039.49 129.247ZM1053.22 177.961L1054.81 176.742L1053.22 177.961ZM1058.18 136.819L1059.42 138.387L1059.43 138.381L1058.18 136.819ZM1093.38 136.229L1092.2 137.842L1092.21 137.851L1092.23 137.859L1093.38 136.229ZM1102.24 146.966L1103.03 148.804L1104.89 148.008L1104.07 146.161L1102.24 146.966ZM1092.13 151.307L1090.28 152.059L1091.04 153.95L1092.92 153.145L1092.13 151.307ZM1086.95 144.8L1085.77 146.414L1085.78 146.423L1085.8 146.432L1086.95 144.8ZM1064.92 145.125L1063.67 143.561L1063.66 143.566L1063.66 143.571L1064.92 145.125ZM1061.75 171.415L1060.15 172.624L1060.16 172.631L1060.16 172.637L1061.75 171.415ZM1083.06 177.047L1083.8 178.907L1083.81 178.904L1083.81 178.902L1083.06 177.047ZM1089.64 171.957L1090.84 170.36L1089.2 169.123L1088.01 170.799L1089.64 171.957ZM1098.43 178.577L1100.02 179.795L1101.25 178.194L1099.64 176.98L1098.43 178.577ZM1087.35 186.991L1088.09 188.846L1088.1 188.842L1088.11 188.839L1087.35 186.991ZM1073.18 186.814C1065.31 185.865 1059.24 182.499 1054.81 176.742L1051.64 179.181C1056.77 185.858 1063.85 189.718 1072.71 190.786L1073.18 186.814ZM1054.81 176.742C1050.36 170.961 1048.58 164.305 1049.51 156.643L1045.53 156.164C1044.49 164.812 1046.52 172.527 1051.64 179.181L1054.81 176.742ZM1049.51 156.643C1050.44 148.925 1053.75 142.888 1059.42 138.386L1056.94 135.252C1050.38 140.449 1046.58 147.468 1045.53 156.164L1049.51 156.643ZM1059.43 138.381C1065.1 133.841 1071.8 132.015 1079.68 132.964L1080.16 128.993C1071.3 127.926 1063.51 129.993 1056.93 135.258L1059.43 138.381ZM1079.68 132.964C1084.38 133.531 1088.54 135.159 1092.2 137.842L1094.57 134.615C1090.33 131.512 1085.51 129.639 1080.16 128.993L1079.68 132.964ZM1092.23 137.859C1095.95 140.506 1098.67 143.806 1100.41 147.772L1104.07 146.161C1102.02 141.504 1098.83 137.645 1094.54 134.598L1092.23 137.859ZM1101.45 145.128L1091.34 149.469L1092.92 153.145L1103.03 148.804L1101.45 145.128ZM1093.98 150.555C1092.76 147.541 1090.79 145.069 1088.11 143.168L1085.8 146.432C1087.87 147.898 1089.35 149.764 1090.28 152.059L1093.98 150.555ZM1088.13 143.187C1085.46 141.23 1082.36 140.056 1078.87 139.636L1078.39 143.607C1081.26 143.953 1083.7 144.898 1085.77 146.414L1088.13 143.187ZM1078.87 139.636C1073.02 138.93 1067.89 140.194 1063.67 143.561L1066.16 146.688C1069.43 144.083 1073.45 143.011 1078.39 143.607L1078.87 139.636ZM1063.66 143.571C1059.5 146.939 1057.12 151.64 1056.42 157.476L1060.39 157.955C1060.99 152.989 1062.95 149.297 1066.18 146.678L1063.66 143.571ZM1056.42 157.476C1055.72 163.265 1056.92 168.37 1060.15 172.624L1063.34 170.205C1060.82 166.89 1059.8 162.862 1060.39 157.955L1056.42 157.476ZM1060.16 172.637C1063.46 176.911 1068.14 179.358 1074 180.063L1074.48 176.092C1069.53 175.496 1065.88 173.5 1063.33 170.192L1060.16 172.637ZM1074 180.063C1077.47 180.482 1080.75 180.111 1083.8 178.907L1082.33 175.187C1079.96 176.123 1077.36 176.439 1074.48 176.092L1074 180.063ZM1083.81 178.902C1086.91 177.652 1089.42 175.725 1091.27 173.116L1088.01 170.799C1086.63 172.742 1084.75 174.208 1082.32 175.192L1083.81 178.902ZM1088.44 173.555L1097.23 180.175L1099.64 176.98L1090.84 170.36L1088.44 173.555ZM1096.85 177.36C1094.2 180.807 1090.79 183.4 1086.58 185.143L1088.11 188.839C1092.94 186.838 1096.93 183.822 1100.02 179.795L1096.85 177.36ZM1086.6 185.136C1082.41 186.822 1077.95 187.389 1073.18 186.814L1072.71 190.786C1078.11 191.437 1083.25 190.797 1088.09 188.846L1086.6 185.136ZM1142.03 139.596L1142.27 137.61L1140.29 137.371L1140.05 139.357L1142.03 139.596ZM1152.91 140.908L1154.9 141.147L1155.14 139.162L1153.15 138.922L1152.91 140.908ZM1146.21 196.505L1145.97 198.491L1147.96 198.73L1148.2 196.745L1146.21 196.505ZM1135.33 195.193L1133.34 194.954L1133.11 196.94L1135.09 197.179L1135.33 195.193ZM1138.11 172.16L1140.09 172.4L1140.33 170.414L1138.35 170.175L1138.11 172.16ZM1117.46 169.67L1117.7 167.685L1115.71 167.445L1115.47 169.431L1117.46 169.67ZM1114.68 192.704L1114.44 194.689L1116.43 194.929L1116.67 192.943L1114.68 192.704ZM1103.72 191.382L1101.73 191.143L1101.49 193.128L1103.48 193.368L1103.72 191.382ZM1110.42 135.785L1110.66 133.799L1108.68 133.56L1108.44 135.545L1110.42 135.785ZM1121.38 137.106L1123.37 137.346L1123.61 135.36L1121.62 135.121L1121.38 137.106ZM1118.72 159.186L1116.74 158.947L1116.5 160.933L1118.48 161.172L1118.72 159.186ZM1139.37 161.676L1139.13 163.662L1141.12 163.901L1141.36 161.916L1139.37 161.676ZM1141.79 141.582L1152.68 142.894L1153.15 138.922L1142.27 137.61L1141.79 141.582ZM1150.93 140.668L1144.23 196.266L1148.2 196.745L1154.9 141.147L1150.93 140.668ZM1146.45 194.52L1135.57 193.208L1135.09 197.179L1145.97 198.491L1146.45 194.52ZM1137.32 195.433L1140.09 172.4L1136.12 171.921L1133.34 194.954L1137.32 195.433ZM1138.35 170.175L1117.7 167.685L1117.22 171.656L1137.87 174.146L1138.35 170.175ZM1115.47 169.431L1112.69 192.464L1116.67 192.943L1119.44 169.91L1115.47 169.431ZM1114.92 190.718L1103.96 189.397L1103.48 193.368L1114.44 194.689L1114.92 190.718ZM1105.71 191.622L1112.41 136.024L1108.44 135.545L1101.73 191.143L1105.71 191.622ZM1110.18 137.77L1121.14 139.092L1121.62 135.121L1110.66 133.799L1110.18 137.77ZM1119.4 136.867L1116.74 158.947L1120.71 159.426L1123.37 137.346L1119.4 136.867ZM1118.48 161.172L1139.13 163.662L1139.61 159.69L1118.96 157.201L1118.48 161.172ZM1141.36 161.916L1144.02 139.835L1140.05 139.357L1137.39 161.437L1141.36 161.916ZM1213.47 175.364L1212.41 173.666L1209.93 175.211L1212.27 176.965L1213.47 175.364ZM1212.84 199.945L1211.69 198.312L1211.69 198.312L1212.84 199.945ZM1176.4 200.144L1174.41 199.905L1174.17 201.891L1176.16 202.13L1176.4 200.144ZM1183.1 144.547L1183.34 142.561L1181.35 142.322L1181.11 144.308L1183.1 144.547ZM1216.48 153.084L1214.96 154.385L1214.97 154.397L1214.98 154.41L1216.48 153.084ZM1192.82 156.114L1193.06 154.129L1191.08 153.889L1190.84 155.875L1192.82 156.114ZM1191.35 168.346L1189.36 168.106L1189.12 170.092L1191.11 170.331L1191.35 168.346ZM1206.73 168.427L1205.5 166.854L1205.48 166.868L1205.46 166.883L1206.73 168.427ZM1206.05 191.471L1207.28 193.045L1207.3 193.031L1207.32 193.018L1206.05 191.471ZM1207.18 182.099L1205.58 183.3L1205.59 183.317L1205.6 183.334L1207.18 182.099ZM1190.17 178.115L1190.41 176.129L1188.43 175.89L1188.19 177.876L1190.17 178.115ZM1188.59 191.22L1186.61 190.981L1186.37 192.966L1188.35 193.206L1188.59 191.22ZM1212.27 176.965C1216.23 179.926 1217.86 183.751 1217.26 188.713L1221.23 189.192C1222 182.823 1219.78 177.589 1214.67 173.763L1212.27 176.965ZM1217.26 188.713C1216.75 192.895 1214.9 196.04 1211.69 198.312L1214 201.579C1218.18 198.619 1220.6 194.436 1221.23 189.192L1217.26 188.713ZM1211.69 198.312C1208.43 200.617 1204.65 201.536 1200.22 201.003L1199.75 204.974C1205.07 205.615 1209.86 204.506 1214 201.579L1211.69 198.312ZM1200.22 201.003L1176.64 198.159L1176.16 202.13L1199.75 204.974L1200.22 201.003ZM1178.38 200.384L1185.08 144.786L1181.11 144.308L1174.41 199.905L1178.38 200.384ZM1182.86 146.533L1204.78 149.176L1205.26 145.204L1183.34 142.561L1182.86 146.533ZM1204.78 149.176C1209.1 149.696 1212.44 151.445 1214.96 154.385L1218 151.783C1214.77 148.013 1210.48 145.833 1205.26 145.204L1204.78 149.176ZM1214.98 154.41C1217.52 157.272 1218.55 160.627 1218.07 164.637L1222.04 165.116C1222.65 160.018 1221.3 155.511 1217.97 151.757L1214.98 154.41ZM1218.07 164.637C1217.58 168.661 1215.71 171.611 1212.41 173.666L1214.53 177.062C1218.89 174.346 1221.41 170.305 1222.04 165.116L1218.07 164.637ZM1204.02 155.45L1193.06 154.129L1192.59 158.1L1203.55 159.421L1204.02 155.45ZM1190.84 155.875L1189.36 168.106L1193.34 168.585L1194.81 156.354L1190.84 155.875ZM1191.11 170.331L1202.07 171.653L1202.55 167.682L1191.59 166.36L1191.11 170.331ZM1202.07 171.653C1204.28 171.919 1206.3 171.37 1208 169.972L1205.46 166.883C1204.65 167.547 1203.73 167.824 1202.55 167.682L1202.07 171.653ZM1207.97 170.001C1209.72 168.627 1210.72 166.748 1210.99 164.509L1207.02 164.03C1206.87 165.286 1206.36 166.178 1205.5 166.854L1207.97 170.001ZM1210.99 164.509C1211.26 162.299 1210.77 160.25 1209.47 158.502L1206.26 160.898C1206.9 161.748 1207.17 162.746 1207.02 164.03L1210.99 164.509ZM1209.47 158.502C1208.14 156.726 1206.26 155.72 1204.02 155.45L1203.55 159.421C1204.8 159.573 1205.65 160.077 1206.26 160.898L1209.47 158.502ZM1200.98 194.728C1203.32 195.01 1205.47 194.47 1207.28 193.045L1204.81 189.898C1203.9 190.615 1202.83 190.922 1201.46 190.757L1200.98 194.728ZM1207.32 193.018C1209.12 191.538 1210.15 189.537 1210.43 187.165L1206.46 186.687C1206.29 188.127 1205.72 189.156 1204.78 189.925L1207.32 193.018ZM1210.43 187.165C1210.72 184.83 1210.18 182.68 1208.75 180.864L1205.6 183.334C1206.32 184.248 1206.63 185.316 1206.46 186.687L1210.43 187.165ZM1208.78 180.898C1207.37 179.019 1205.4 177.937 1203.04 177.652L1202.56 181.623C1203.91 181.785 1204.86 182.344 1205.58 183.3L1208.78 180.898ZM1203.04 177.652L1190.41 176.129L1189.93 180.101L1202.56 181.623L1203.04 177.652ZM1188.19 177.876L1186.61 190.981L1190.58 191.459L1192.16 178.354L1188.19 177.876ZM1188.35 193.206L1200.98 194.728L1201.46 190.757L1188.83 189.234L1188.35 193.206ZM1254.98 209.619L1253.15 210.409L1253.6 211.467L1254.75 211.605L1254.98 209.619ZM1246.11 188.969L1247.95 188.179L1247.5 187.121L1246.35 186.983L1246.11 188.969ZM1237.77 187.964L1238.01 185.978L1236.03 185.738L1235.79 187.724L1237.77 187.964ZM1235.45 207.264L1235.21 209.249L1237.19 209.489L1237.43 207.503L1235.45 207.264ZM1224.49 205.942L1222.5 205.703L1222.26 207.689L1224.25 207.928L1224.49 205.942ZM1231.19 150.345L1231.43 148.359L1229.44 148.12L1229.2 150.105L1231.19 150.345ZM1265.88 160.007L1267.45 158.772L1265.88 160.007ZM1265.61 182.94L1267.13 184.247L1267.13 184.241L1267.14 184.234L1265.61 182.94ZM1257.04 188.594L1256.43 186.689L1254.32 187.365L1255.2 189.393L1257.04 188.594ZM1266.82 211.046L1266.58 213.032L1270.05 213.45L1268.65 210.247L1266.82 211.046ZM1240.91 161.912L1241.15 159.927L1239.17 159.687L1238.93 161.673L1240.91 161.912ZM1238.93 178.353L1236.95 178.114L1236.71 180.099L1238.69 180.339L1238.93 178.353ZM1255.82 177.972L1257.11 179.502L1257.12 179.491L1257.13 179.48L1255.82 177.972ZM1257.23 166.296L1255.61 167.476L1257.23 166.296ZM1256.82 208.83L1247.95 188.179L1244.28 189.758L1253.15 210.409L1256.82 208.83ZM1246.35 186.983L1238.01 185.978L1237.53 189.949L1245.87 190.955L1246.35 186.983ZM1235.79 187.724L1233.46 207.024L1237.43 207.503L1239.76 188.203L1235.79 187.724ZM1235.69 205.278L1224.72 203.957L1224.25 207.928L1235.21 209.249L1235.69 205.278ZM1226.47 206.182L1233.17 150.584L1229.2 150.105L1222.5 205.703L1226.47 206.182ZM1230.95 152.331L1253.19 155.012L1253.67 151.04L1231.43 148.359L1230.95 152.331ZM1253.19 155.012C1257.8 155.568 1261.47 157.628 1264.31 161.242L1267.45 158.772C1263.96 154.316 1259.32 151.723 1253.67 151.04L1253.19 155.012ZM1264.31 161.242C1267.15 164.86 1268.28 168.889 1267.73 173.444L1271.7 173.923C1272.37 168.312 1270.95 163.223 1267.45 158.772L1264.31 161.242ZM1267.73 173.444C1267.36 176.484 1266.16 179.205 1264.09 181.646L1267.14 184.234C1269.7 181.217 1271.23 177.767 1271.7 173.923L1267.73 173.444ZM1264.1 181.633C1262.03 184.027 1259.49 185.707 1256.43 186.689L1257.65 190.498C1261.4 189.294 1264.57 187.205 1267.13 184.247L1264.1 181.633ZM1255.2 189.393L1264.99 211.845L1268.65 210.247L1258.87 187.795L1255.2 189.393ZM1267.06 209.061L1255.22 207.634L1254.75 211.605L1266.58 213.032L1267.06 209.061ZM1238.93 161.673L1236.95 178.114L1240.92 178.592L1242.9 162.152L1238.93 161.673ZM1238.69 180.339L1249.97 181.698L1250.45 177.727L1239.17 176.367L1238.69 180.339ZM1249.97 181.698C1252.62 182.018 1255.03 181.247 1257.11 179.502L1254.53 176.442C1253.26 177.515 1251.93 177.906 1250.45 177.727L1249.97 181.698ZM1257.13 179.48C1259.2 177.682 1260.4 175.354 1260.74 172.602L1256.77 172.123C1256.55 173.924 1255.8 175.336 1254.51 176.463L1257.13 179.48ZM1260.74 172.602C1261.07 169.848 1260.45 167.314 1258.84 165.116L1255.61 167.476C1256.59 168.813 1256.98 170.323 1256.77 172.123L1260.74 172.602ZM1258.84 165.116C1257.24 162.928 1255.08 161.605 1252.43 161.286L1251.95 165.258C1253.44 165.436 1254.63 166.13 1255.61 167.476L1258.84 165.116ZM1252.43 161.286L1241.15 159.927L1240.67 163.898L1251.95 165.258L1252.43 161.286ZM1309.01 216.133L1307.05 216.534L1307.34 217.946L1308.77 218.119L1309.01 216.133ZM1306.88 205.724L1308.84 205.323L1308.56 203.911L1307.12 203.738L1306.88 205.724ZM1284.73 203.052L1284.96 201.066L1283.53 200.894L1282.92 202.197L1284.73 203.052ZM1280.18 212.657L1279.94 214.643L1281.37 214.816L1281.99 213.512L1280.18 212.657ZM1268.35 211.231L1266.55 210.349L1265.31 212.879L1268.11 213.216L1268.35 211.231ZM1294.51 157.979L1294.75 155.994L1293.34 155.824L1292.72 157.097L1294.51 157.979ZM1308.09 159.617L1310.04 159.184L1309.74 157.801L1308.33 157.631L1308.09 159.617ZM1320.93 217.57L1320.69 219.555L1323.49 219.893L1322.88 217.137L1320.93 217.57ZM1289.46 193.228L1287.65 192.369L1286.45 194.88L1289.22 195.213L1289.46 193.228ZM1304.7 195.066L1304.47 197.052L1307.23 197.385L1306.66 194.661L1304.7 195.066ZM1299.82 171.431L1301.78 171.026L1300.57 165.191L1298.01 170.573L1299.82 171.431ZM1310.97 215.733L1308.84 205.323L1304.93 206.124L1307.05 216.534L1310.97 215.733ZM1307.12 203.738L1284.96 201.066L1284.49 205.038L1306.65 207.709L1307.12 203.738ZM1282.92 202.197L1278.37 211.802L1281.99 213.512L1286.53 203.907L1282.92 202.197ZM1280.42 210.672L1268.59 209.245L1268.11 213.216L1279.94 214.643L1280.42 210.672ZM1270.14 212.112L1296.31 158.861L1292.72 157.097L1266.55 210.349L1270.14 212.112ZM1294.27 159.965L1307.85 161.602L1308.33 157.631L1294.75 155.994L1294.27 159.965ZM1306.14 160.049L1318.98 218.002L1322.88 217.137L1310.04 159.184L1306.14 160.049ZM1321.17 215.584L1309.25 214.148L1308.77 218.119L1320.69 219.555L1321.17 215.584ZM1289.22 195.213L1304.47 197.052L1304.94 193.08L1289.69 191.242L1289.22 195.213ZM1306.66 194.661L1301.78 171.026L1297.86 171.836L1302.75 195.471L1306.66 194.661ZM1298.01 170.573L1287.65 192.369L1291.26 194.086L1301.62 172.29L1298.01 170.573ZM1365.2 166.501L1365.44 164.516L1363.45 164.276L1363.21 166.262L1365.2 166.501ZM1376.16 167.823L1378.14 168.062L1378.38 166.077L1376.4 165.837L1376.16 167.823ZM1369.45 223.42L1369.21 225.406L1371.2 225.645L1371.44 223.66L1369.45 223.42ZM1361.11 222.415L1359.35 223.358L1359.84 224.276L1360.87 224.4L1361.11 222.415ZM1341.39 185.548L1343.15 184.605L1340.16 179.017L1339.4 185.309L1341.39 185.548ZM1337.29 219.542L1337.05 221.528L1339.03 221.767L1339.27 219.781L1337.29 219.542ZM1326.33 218.221L1324.34 217.981L1324.1 219.967L1326.09 220.206L1326.33 218.221ZM1333.03 162.623L1333.27 160.638L1331.28 160.398L1331.04 162.384L1333.03 162.623ZM1341.37 163.629L1343.13 162.683L1342.64 161.767L1341.61 161.643L1341.37 163.629ZM1361.11 200.416L1359.35 201.361L1362.34 206.935L1363.09 200.655L1361.11 200.416ZM1364.96 168.487L1375.92 169.808L1376.4 165.837L1365.44 164.516L1364.96 168.487ZM1374.17 167.583L1367.47 223.181L1371.44 223.66L1378.14 168.062L1374.17 167.583ZM1369.69 221.435L1361.35 220.429L1360.87 224.4L1369.21 225.406L1369.69 221.435ZM1362.88 221.471L1343.15 184.605L1339.62 186.492L1359.35 223.358L1362.88 221.471ZM1339.4 185.309L1335.3 219.303L1339.27 219.781L1343.37 185.788L1339.4 185.309ZM1337.53 217.556L1326.57 216.235L1326.09 220.206L1337.05 221.528L1337.53 217.556ZM1328.31 218.46L1335.01 162.863L1331.04 162.384L1324.34 217.981L1328.31 218.46ZM1332.79 164.609L1341.13 165.614L1341.61 161.643L1333.27 160.638L1332.79 164.609ZM1339.61 164.574L1359.35 201.361L1362.87 199.47L1343.13 162.683L1339.61 164.574ZM1363.09 200.655L1367.18 166.741L1363.21 166.262L1359.12 200.176L1363.09 200.655ZM1400.37 155.997L1401.57 157.597L1401.59 157.584L1401.61 157.57L1400.37 155.997ZM1392.71 215.587L1391.16 214.322L1388.86 217.138L1392.47 217.573L1392.71 215.587ZM1416.3 218.431L1418.28 218.671L1418.52 216.685L1416.54 216.446L1416.3 218.431ZM1415.03 228.915L1414.79 230.901L1416.78 231.14L1417.02 229.155L1415.03 228.915ZM1377.46 224.386L1375.48 224.147L1375.24 226.132L1377.22 226.372L1377.46 224.386ZM1378.52 215.649L1376.97 214.382L1376.6 214.832L1376.53 215.41L1378.52 215.649ZM1406.02 182.059L1407.56 183.326L1409.87 180.509L1406.26 180.074L1406.02 182.059ZM1383.46 179.34L1381.47 179.1L1381.23 181.086L1383.22 181.325L1383.46 179.34ZM1384.72 168.856L1384.96 166.87L1382.98 166.631L1382.74 168.616L1384.72 168.856ZM1421.26 173.26L1423.24 173.5L1423.48 171.514L1421.5 171.275L1421.26 173.26ZM1420.21 181.918L1421.76 183.183L1422.13 182.734L1422.2 182.157L1420.21 181.918ZM1403.72 165.022C1402.56 164.882 1401.65 164.374 1400.9 163.419L1397.76 165.889C1399.15 167.663 1401.01 168.724 1403.24 168.993L1403.72 165.022ZM1400.9 163.419C1400.15 162.464 1399.88 161.463 1400.02 160.305L1396.05 159.826C1395.78 162.057 1396.37 164.114 1397.76 165.889L1400.9 163.419ZM1400.02 160.305C1400.16 159.149 1400.66 158.286 1401.57 157.597L1399.18 154.396C1397.38 155.744 1396.31 157.593 1396.05 159.826L1400.02 160.305ZM1401.61 157.57C1402.56 156.82 1403.57 156.543 1404.72 156.682L1405.2 152.711C1402.97 152.442 1400.91 153.031 1399.14 154.423L1401.61 157.57ZM1404.72 156.682C1405.81 156.813 1406.7 157.305 1407.46 158.275L1410.61 155.806C1409.22 154.047 1407.4 152.976 1405.2 152.711L1404.72 156.682ZM1407.46 158.275C1408.22 159.245 1408.49 160.224 1408.36 161.31L1412.33 161.789C1412.59 159.593 1411.99 157.565 1410.61 155.806L1407.46 158.275ZM1408.36 161.31C1408.22 162.468 1407.71 163.375 1406.75 164.124L1409.22 167.271C1411 165.879 1412.06 164.02 1412.33 161.789L1408.36 161.31ZM1406.75 164.124C1405.78 164.886 1404.81 165.153 1403.72 165.022L1403.24 168.993C1405.44 169.258 1407.46 168.652 1409.22 167.271L1406.75 164.124ZM1392.47 217.573L1416.06 220.417L1416.54 216.446L1392.95 213.602L1392.47 217.573ZM1414.31 218.192L1413.05 228.676L1417.02 229.155L1418.28 218.671L1414.31 218.192ZM1415.27 226.93L1377.7 222.4L1377.22 226.372L1414.79 230.901L1415.27 226.93ZM1379.45 224.625L1380.5 215.889L1376.53 215.41L1375.48 224.147L1379.45 224.625ZM1380.06 216.916L1407.56 183.326L1404.47 180.792L1376.97 214.382L1380.06 216.916ZM1406.26 180.074L1383.7 177.354L1383.22 181.325L1405.78 184.045L1406.26 180.074ZM1385.44 179.579L1386.71 169.095L1382.74 168.616L1381.47 179.1L1385.44 179.579ZM1384.48 170.841L1421.02 175.246L1421.5 171.275L1384.96 166.87L1384.48 170.841ZM1419.27 173.021L1418.23 181.678L1422.2 182.157L1423.24 173.5L1419.27 173.021ZM1418.67 180.652L1391.16 214.322L1394.26 216.853L1421.76 183.183L1418.67 180.652ZM1458.32 234.135L1456.36 234.536L1456.65 235.948L1458.08 236.12L1458.32 234.135ZM1456.19 223.725L1458.15 223.324L1457.86 221.912L1456.43 221.739L1456.19 223.725ZM1434.03 221.053L1434.27 219.068L1432.84 218.895L1432.23 220.198L1434.03 221.053ZM1429.49 230.659L1429.25 232.644L1430.68 232.817L1431.3 231.514L1429.49 230.659ZM1417.66 229.232L1415.86 228.35L1414.62 230.88L1417.42 231.218L1417.66 229.232ZM1443.82 175.981L1444.06 173.995L1442.65 173.825L1442.02 175.099L1443.82 175.981ZM1457.4 177.618L1459.35 177.186L1459.05 175.802L1457.64 175.632L1457.4 177.618ZM1470.24 235.571L1470 237.557L1472.8 237.895L1472.19 235.139L1470.24 235.571ZM1438.76 211.229L1436.96 210.37L1435.76 212.882L1438.53 213.215L1438.76 211.229ZM1454.01 213.067L1453.77 215.053L1456.54 215.386L1455.97 212.663L1454.01 213.067ZM1449.13 189.433L1451.09 189.028L1449.88 183.193L1447.32 188.574L1449.13 189.433ZM1460.28 233.734L1458.15 223.324L1454.23 224.126L1456.36 234.536L1460.28 233.734ZM1456.43 221.739L1434.27 219.068L1433.8 223.039L1455.95 225.711L1456.43 221.739ZM1432.23 220.198L1427.68 229.804L1431.3 231.514L1435.84 221.908L1432.23 220.198ZM1429.73 228.673L1417.9 227.246L1417.42 231.218L1429.25 232.644L1429.73 228.673ZM1419.45 230.114L1445.62 176.863L1442.02 175.099L1415.86 228.35L1419.45 230.114ZM1443.58 177.966L1457.16 179.604L1457.64 175.632L1444.06 173.995L1443.58 177.966ZM1455.45 178.051L1468.28 236.004L1472.19 235.139L1459.35 177.186L1455.45 178.051ZM1470.48 233.585L1458.56 232.149L1458.08 236.12L1470 237.557L1470.48 233.585ZM1438.53 213.215L1453.77 215.053L1454.25 211.082L1439 209.243L1438.53 213.215ZM1455.97 212.663L1451.09 189.028L1447.17 189.838L1452.06 213.472L1455.97 212.663ZM1447.32 188.574L1436.96 210.37L1440.57 212.088L1450.93 190.291L1447.32 188.574ZM1480.13 229.431L1481.71 228.211L1480.13 229.431ZM1485.09 188.289L1486.33 189.856L1486.34 189.85L1485.09 188.289ZM1520.29 187.699L1519.11 189.312L1519.12 189.32L1519.14 189.329L1520.29 187.699ZM1529.15 198.436L1529.94 200.274L1531.8 199.478L1530.98 197.63L1529.15 198.436ZM1519.04 202.777L1517.19 203.529L1517.95 205.42L1519.83 204.615L1519.04 202.777ZM1513.86 196.27L1512.68 197.883L1512.69 197.893L1512.7 197.902L1513.86 196.27ZM1491.82 196.595L1490.58 195.031L1490.57 195.036L1490.56 195.041L1491.82 196.595ZM1488.65 222.884L1487.06 224.094L1487.07 224.1L1487.07 224.107L1488.65 222.884ZM1509.97 228.517L1510.71 230.377L1510.72 230.374L1510.72 230.371L1509.97 228.517ZM1516.55 223.427L1517.75 221.83L1516.11 220.593L1514.92 222.269L1516.55 223.427ZM1525.34 230.047L1526.93 231.265L1528.16 229.664L1526.54 228.449L1525.34 230.047ZM1514.25 238.461L1515 240.316L1515.01 240.312L1515.02 240.309L1514.25 238.461ZM1500.09 238.284C1492.22 237.335 1486.14 233.969 1481.71 228.211L1478.54 230.651C1483.68 237.327 1490.76 241.188 1499.61 242.256L1500.09 238.284ZM1481.71 228.211C1477.27 222.43 1475.49 215.775 1476.41 208.113L1472.44 207.634C1471.4 216.281 1473.43 223.997 1478.54 230.651L1481.71 228.211ZM1476.41 208.113C1477.34 200.395 1480.65 194.357 1486.33 189.856L1483.85 186.722C1477.29 191.919 1473.49 198.938 1472.44 207.634L1476.41 208.113ZM1486.34 189.85C1492.01 185.31 1498.71 183.485 1506.59 184.434L1507.06 180.463C1498.21 179.395 1490.42 181.463 1483.84 186.728L1486.34 189.85ZM1506.59 184.434C1511.29 185.001 1515.45 186.629 1519.11 189.312L1521.48 186.085C1517.24 182.982 1512.42 181.109 1507.06 180.463L1506.59 184.434ZM1519.14 189.329C1522.86 191.976 1525.58 195.276 1527.32 199.242L1530.98 197.63C1528.93 192.973 1525.74 189.115 1521.45 186.068L1519.14 189.329ZM1528.36 196.598L1518.25 200.939L1519.83 204.615L1529.94 200.274L1528.36 196.598ZM1520.89 202.025C1519.67 199.01 1517.7 196.538 1515.02 194.638L1512.7 197.902C1514.77 199.368 1516.26 201.234 1517.19 203.529L1520.89 202.025ZM1515.04 194.657C1512.37 192.7 1509.27 191.526 1505.78 191.106L1505.3 195.077C1508.17 195.423 1510.61 196.368 1512.68 197.883L1515.04 194.657ZM1505.78 191.106C1499.93 190.4 1494.8 191.664 1490.58 195.031L1493.07 198.158C1496.34 195.552 1500.35 194.481 1505.3 195.077L1505.78 191.106ZM1490.56 195.041C1486.41 198.409 1484.03 203.11 1483.32 208.946L1487.3 209.425C1487.89 204.459 1489.85 200.766 1493.08 198.148L1490.56 195.041ZM1483.32 208.946C1482.63 214.735 1483.83 219.84 1487.06 224.094L1490.25 221.675C1487.73 218.36 1486.7 214.332 1487.3 209.425L1483.32 208.946ZM1487.07 224.107C1490.37 228.381 1495.05 230.827 1500.91 231.533L1501.39 227.562C1496.44 226.965 1492.79 224.97 1490.24 221.662L1487.07 224.107ZM1500.91 231.533C1504.38 231.952 1507.66 231.581 1510.71 230.377L1509.24 226.657C1506.87 227.593 1504.27 227.909 1501.39 227.562L1500.91 231.533ZM1510.72 230.371C1513.82 229.122 1516.33 227.195 1518.18 224.586L1514.92 222.269C1513.54 224.212 1511.66 225.678 1509.22 226.662L1510.72 230.371ZM1515.35 225.025L1524.14 231.645L1526.54 228.449L1517.75 221.83L1515.35 225.025ZM1523.75 228.829C1521.11 232.277 1517.7 234.869 1513.49 236.613L1515.02 240.309C1519.85 238.308 1523.84 235.292 1526.93 231.265L1523.75 228.829ZM1513.51 236.605C1509.32 238.292 1504.86 238.859 1500.09 238.284L1499.61 242.256C1505.01 242.907 1510.16 242.267 1515 240.316L1513.51 236.605ZM1568.94 191.066L1569.18 189.08L1567.2 188.841L1566.96 190.826L1568.94 191.066ZM1579.82 192.378L1581.81 192.617L1582.05 190.631L1580.06 190.392L1579.82 192.378ZM1573.12 247.975L1572.88 249.961L1574.87 250.2L1575.11 248.214L1573.12 247.975ZM1562.24 246.663L1560.25 246.424L1560.01 248.409L1562 248.649L1562.24 246.663ZM1565.02 223.63L1567 223.869L1567.24 221.884L1565.26 221.644L1565.02 223.63ZM1544.37 221.14L1544.6 219.155L1542.62 218.915L1542.38 220.901L1544.37 221.14ZM1541.59 244.174L1541.35 246.159L1543.33 246.399L1543.57 244.413L1541.59 244.174ZM1530.63 242.852L1528.64 242.613L1528.4 244.598L1530.39 244.838L1530.63 242.852ZM1537.33 187.255L1537.57 185.269L1535.58 185.03L1535.35 187.015L1537.33 187.255ZM1548.29 188.576L1550.28 188.816L1550.52 186.83L1548.53 186.59L1548.29 188.576ZM1545.63 210.656L1543.64 210.417L1543.4 212.402L1545.39 212.642L1545.63 210.656ZM1566.28 213.146L1566.04 215.132L1568.03 215.371L1568.27 213.385L1566.28 213.146ZM1568.7 193.051L1579.58 194.363L1580.06 190.392L1569.18 189.08L1568.7 193.051ZM1577.84 192.138L1571.13 247.736L1575.11 248.214L1581.81 192.617L1577.84 192.138ZM1573.36 245.989L1562.48 244.678L1562 248.649L1572.88 249.961L1573.36 245.989ZM1564.22 246.903L1567 223.869L1563.03 223.391L1560.25 246.424L1564.22 246.903ZM1565.26 221.644L1544.6 219.155L1544.13 223.126L1564.78 225.616L1565.26 221.644ZM1542.38 220.901L1539.6 243.934L1543.57 244.413L1546.35 221.38L1542.38 220.901ZM1541.83 242.188L1530.87 240.866L1530.39 244.838L1541.35 246.159L1541.83 242.188ZM1532.61 243.091L1539.32 187.494L1535.35 187.015L1528.64 242.613L1532.61 243.091ZM1537.09 189.24L1548.05 190.562L1548.53 186.59L1537.57 185.269L1537.09 189.24ZM1546.31 188.337L1543.64 210.417L1547.62 210.896L1550.28 188.816L1546.31 188.337ZM1545.39 212.642L1566.04 215.132L1566.52 211.16L1545.87 208.671L1545.39 212.642ZM1568.27 213.385L1570.93 191.305L1566.96 190.826L1564.29 212.907L1568.27 213.385Z" fill="#004161"/>
</svg>
